<svg width="350" height="240" viewBox="0 0 350 240" fill="none" xmlns="http://www.w3.org/2000/svg">
<g clip-path="url(#clip0)">
<path d="M205.992 212.443C209.363 218.402 206.504 238.53 206.504 238.53C206.504 238.53 187.783 230.605 184.413 224.648C183.609 223.231 183.093 221.67 182.894 220.053C182.695 218.437 182.816 216.797 183.251 215.227C183.685 213.657 184.425 212.189 185.428 210.905C186.43 209.621 187.676 208.548 189.094 207.746C190.512 206.944 192.074 206.43 193.69 206.232C195.307 206.034 196.947 206.156 198.516 206.593C200.086 207.029 201.554 207.77 202.836 208.774C204.119 209.778 205.191 211.025 205.992 212.443V212.443Z" fill="#F1F1F1"/>
<path d="M206.775 238.504L206.377 238.587C202.547 220.388 189.17 208.047 189.035 207.925L189.309 207.624C189.444 207.747 202.916 220.173 206.775 238.504Z" fill="white"/>
<path d="M236.623 219.229C232.048 227.527 206.256 238.77 206.256 238.77C206.256 238.77 202.003 210.957 206.576 202.661C207.663 200.688 209.129 198.949 210.889 197.542C212.649 196.136 214.669 195.09 216.833 194.464C218.998 193.838 221.264 193.645 223.503 193.895C225.742 194.145 227.91 194.833 229.883 195.921C231.856 197.009 233.595 198.475 235.002 200.235C236.408 201.995 237.454 204.015 238.08 206.179C238.706 208.343 238.899 210.61 238.649 212.849C238.399 215.088 237.711 217.256 236.623 219.229Z" fill="#F1F1F1"/>
<path d="M206.485 239.071L206.098 238.663C224.762 220.938 229.593 196.217 229.64 195.969L230.193 196.073C230.146 196.322 225.285 221.217 206.485 239.071Z" fill="white"/>
<path d="M331.125 9.07416H0.140625V166.132H331.125V9.07416Z" fill="#E6E6E6"/>
<path d="M321.661 22.5422H9.60547V153.58H321.661V22.5422Z" fill="white"/>
<path d="M330.984 0H0V14.0612H330.984V0Z" fill="#06053A"/>
<path d="M10.4499 9.94042C11.8893 9.94042 13.0561 8.77358 13.0561 7.33422C13.0561 5.89486 11.8893 4.72803 10.4499 4.72803C9.01058 4.72803 7.84375 5.89486 7.84375 7.33422C7.84375 8.77358 9.01058 9.94042 10.4499 9.94042Z" fill="white"/>
<path d="M20.3406 9.94042C21.7799 9.94042 22.9468 8.77358 22.9468 7.33422C22.9468 5.89486 21.7799 4.72803 20.3406 4.72803C18.9012 4.72803 17.7344 5.89486 17.7344 7.33422C17.7344 8.77358 18.9012 9.94042 20.3406 9.94042Z" fill="white"/>
<path d="M30.2351 9.94042C31.6745 9.94042 32.8413 8.77358 32.8413 7.33422C32.8413 5.89486 31.6745 4.72803 30.2351 4.72803C28.7957 4.72803 27.6289 5.89486 27.6289 7.33422C27.6289 8.77358 28.7957 9.94042 30.2351 9.94042Z" fill="white"/>
<path d="M131.998 62.0999C131.297 62.1022 130.729 63.0632 130.73 64.2462C130.732 65.426 131.299 66.3818 131.998 66.3841H262.673C263.374 66.3818 263.942 65.4208 263.94 64.2377C263.939 63.058 263.372 62.1022 262.673 62.0999H131.998Z" fill="#E6E6E6"/>
<path d="M131.998 74.9537C131.297 74.9561 130.729 75.917 130.73 77.1001C130.732 78.2799 131.299 79.2357 131.998 79.238H228.559C229.261 79.2356 229.828 78.2747 229.827 77.0916C229.825 75.9119 229.259 74.9561 228.559 74.9537H131.998Z" fill="#E6E6E6"/>
<path d="M131.998 87.517C131.297 87.5193 130.729 88.4803 130.73 89.6633C130.732 90.8431 131.299 91.7989 131.998 91.8012H262.673C263.374 91.7989 263.942 90.8379 263.94 89.6549C263.939 88.4751 263.372 87.5193 262.673 87.517H131.998Z" fill="#E6E6E6"/>
<path d="M131.998 100.371C131.297 100.373 130.729 101.334 130.73 102.517C130.732 103.697 131.299 104.653 131.998 104.655H228.559C229.261 104.653 229.828 103.692 229.827 102.509C229.825 101.329 229.259 100.373 228.559 100.371H131.998Z" fill="#E6E6E6"/>
<path d="M30.5918 109.5C29.8904 109.502 29.3228 110.463 29.3242 111.646C29.3256 112.826 29.8923 113.782 30.5918 113.784H95.0942C95.7957 113.782 96.3632 112.821 96.3618 111.638C96.3604 110.458 95.7937 109.502 95.0942 109.5H30.5918Z" fill="#E6E6E6"/>
<path d="M30.5918 122.354C29.8904 122.356 29.3228 123.317 29.3242 124.5C29.3256 125.68 29.8923 126.636 30.5918 126.638H60.981C61.6824 126.636 62.25 125.675 62.2486 124.492C62.2472 123.312 61.6805 122.356 60.981 122.354H30.5918Z" fill="#E6E6E6"/>
<path d="M87.5354 55.1931C86.2853 51.6019 84.2669 48.3266 81.621 45.5956C78.975 42.8646 75.7652 40.7436 72.2153 39.3806C68.6655 38.0176 64.861 37.4454 61.0672 37.7037C57.2735 37.9621 53.5818 39.045 50.2495 40.8767C46.9172 42.7085 44.0246 45.2451 41.7734 48.3096C39.5222 51.3742 37.9666 54.8929 37.215 58.6204C36.4634 62.348 36.534 66.1946 37.4218 69.892C38.3096 73.5895 39.9932 77.0488 42.3553 80.0287C42.59 80.3244 42.834 80.62 43.0827 80.9063C43.1014 80.9251 43.1154 80.9439 43.1342 80.9626C43.7461 81.6674 44.3964 82.338 45.082 82.9713C45.2603 83.1355 45.448 83.3045 45.6357 83.464C45.9924 83.7832 46.3584 84.0882 46.7386 84.3792C47.4808 84.9642 48.2548 85.5079 49.0569 86.0077L49.0851 86.0217C49.606 86.3456 50.1362 86.6459 50.6761 86.9322L50.8966 87.0448C51.4034 87.3076 51.9197 87.5564 52.45 87.7863C52.5579 87.8333 52.6752 87.8802 52.7832 87.9271C52.7926 87.9318 52.7974 87.9318 52.8068 87.9365C53.8783 88.3821 54.979 88.7537 56.1013 89.0488C58.3012 89.6351 60.5683 89.9317 62.8451 89.9311C63.6757 89.9311 64.497 89.8935 65.3089 89.8137C67.164 89.6425 68.9954 89.2728 70.7717 88.7109C70.7765 88.7109 70.7811 88.7062 70.7857 88.7062C71.9078 88.3487 73.0039 87.9144 74.0662 87.4062C74.0708 87.4015 74.0804 87.4015 74.085 87.3968C74.3242 87.2842 74.5543 87.1622 74.789 87.0448L74.9017 86.9885C75.0894 86.89 75.2771 86.7914 75.4647 86.6882C75.934 86.43 76.394 86.1578 76.8493 85.8669C76.976 85.7918 77.0979 85.712 77.2246 85.6275C77.6376 85.3553 78.0459 85.0644 78.4401 84.7687C78.5106 84.7171 78.5856 84.6655 78.6561 84.6091C83.0528 81.2717 86.2799 76.628 87.875 71.3437C89.4701 66.0594 89.3512 60.4057 87.5354 55.1931Z" fill="white"/>
<path d="M71.4729 74.5634C73.6369 74.5634 75.3912 72.8091 75.3912 70.6452C75.3912 68.4812 73.6369 66.7269 71.4729 66.7269C69.3089 66.7269 67.5547 68.4812 67.5547 70.6452C67.5547 72.8091 69.3089 74.5634 71.4729 74.5634Z" fill="#2F2E41"/>
<path d="M72.5628 66.8348C73.241 66.8348 73.9076 67.0108 74.4973 67.3456C75.0871 67.6804 75.5799 68.1625 75.9275 68.7448C76.2751 69.3271 76.4657 69.9896 76.4805 70.6677C76.4954 71.3457 76.334 72.0159 76.0122 72.6129C76.3518 72.1878 76.5992 71.6967 76.7386 71.1708C76.8779 70.6449 76.9062 70.0958 76.8215 69.5583C76.7369 69.0209 76.5413 68.507 76.2471 68.0493C75.9529 67.5917 75.5666 67.2003 75.1129 66.9002C74.6591 66.6001 74.1478 66.3978 73.6115 66.3062C73.0752 66.2146 72.5257 66.2357 71.998 66.3682C71.4704 66.5006 70.9761 66.7416 70.5467 67.0756C70.1172 67.4097 69.7621 67.8295 69.5039 68.3084C69.8702 67.8485 70.3355 67.4772 70.8652 67.222C71.3949 66.9669 71.9754 66.8345 72.5633 66.8348H72.5628Z" fill="#2F2E41"/>
<path d="M64.1508 70.6367C70.5077 70.6367 75.661 65.4834 75.661 59.1265C75.661 52.7696 70.5077 47.6163 64.1508 47.6163C57.7939 47.6163 52.6406 52.7696 52.6406 59.1265C52.6406 65.4834 57.7939 70.6367 64.1508 70.6367Z" fill="#2F2E41"/>
<path d="M55.1174 51.9851C57.1007 49.7546 59.873 48.3819 62.8492 48.1567C65.8254 47.9315 68.7727 48.8714 71.069 50.778C70.9752 50.6884 70.8813 50.5983 70.7842 50.5115C68.5104 48.4746 65.5207 47.4243 62.4726 47.5917C59.4245 47.7592 56.5677 49.1306 54.5308 51.4044C52.4939 53.6781 51.4436 56.6679 51.6111 59.716C51.7785 62.7641 53.15 65.6208 55.4237 67.6577C55.4456 67.6773 55.4675 67.6968 55.4895 67.7162C55.5871 67.803 55.6875 67.8851 55.7875 67.9682C53.625 65.911 52.3464 63.0941 52.2215 60.112C52.0965 57.13 53.135 54.216 55.1178 51.9851H55.1174Z" fill="#2F2E41"/>
<path d="M64.0538 70.5391C68.1479 70.5391 71.4669 67.2201 71.4669 63.1259C71.4669 59.0318 68.1479 55.7128 64.0538 55.7128C59.9596 55.7128 56.6406 59.0318 56.6406 63.1259C56.6406 67.2201 59.9596 70.5391 64.0538 70.5391Z" fill="#A0616A"/>
<path d="M77.3166 82.441V84.9283C76.8613 85.2193 76.4014 85.4915 75.9321 85.7496C75.7444 85.8528 75.5567 85.9514 75.369 86.05L75.2563 86.1063C75.0216 86.2236 74.7916 86.3456 74.5523 86.4582C74.5478 86.4629 74.5381 86.4629 74.5336 86.4676C73.4712 86.9758 72.3751 87.4102 71.253 87.7676C71.2484 87.7676 71.2438 87.7723 71.239 87.7723C69.4628 88.3342 67.6314 88.7039 65.7762 88.8752C64.9643 88.9549 64.1431 88.9925 63.3124 88.9925C61.0357 88.9932 58.7686 88.6965 56.5686 88.1102C55.4464 87.8151 54.3456 87.4435 53.2741 86.9979C53.2647 86.9933 53.2599 86.9933 53.2505 86.9886C53.1426 86.9416 53.0253 86.8947 52.9173 86.8478C52.3871 86.6178 51.8708 86.3691 51.3639 86.1063L51.1434 85.9936C50.6036 85.7074 50.0733 85.407 49.5524 85.0832L49.5243 85.0691C48.7221 84.5693 47.9482 84.0256 47.2059 83.4406C46.8258 83.1496 46.4598 82.8446 46.103 82.5255C45.9153 82.3659 45.7276 82.197 45.5494 82.0327C44.8637 81.3994 44.2134 80.7289 43.6016 80.0241C43.6827 79.5352 43.802 79.0535 43.9584 78.5833L43.9629 78.5786C43.991 78.4985 44.0239 78.4201 44.0615 78.3439C44.0874 78.2766 44.1171 78.2108 44.1506 78.1468C44.9907 76.5747 46.5114 76.1851 48.398 76.1007C49.4633 76.0537 50.6412 76.1054 51.885 76.0913C52.542 76.0866 53.2223 76.0631 53.9029 76.0021C58.197 75.6126 57.4181 73.0783 57.6104 71.7127C57.8029 70.3892 58.9949 71.5343 59.0747 71.6094L59.0793 71.6141C61.5093 72.7513 64.1978 73.2226 66.8698 72.9798C67.3297 72.9235 67.7896 72.8906 68.2495 72.8765C69.4604 72.8625 69.1975 73.2097 68.78 73.496C68.5773 73.6294 68.3656 73.7486 68.1464 73.8527C68.1464 73.8527 67.9539 75.026 67.7568 76.7812C67.5692 78.4613 70.7885 79.2497 71.0559 79.3107C71.0615 79.3144 71.0681 79.3161 71.0747 79.3154C72.2504 79.0105 73.4882 79.043 74.6463 79.4092H74.6509C75.3126 79.6526 75.903 80.0573 76.3685 80.5868C76.8341 81.1162 77.16 81.7536 77.3166 82.441Z" fill="#CBCBCB"/>
<path d="M53.323 85.4585C53.323 85.8058 53.3138 86.139 53.2996 86.4535C53.295 86.6412 53.2856 86.8242 53.2763 86.9979C53.2669 86.9932 53.262 86.9932 53.2526 86.9885C53.1447 86.9415 53.0274 86.8946 52.9194 86.8477C52.3892 86.6177 51.8729 86.369 51.366 86.1062L51.1456 85.9935C50.6057 85.7073 50.0754 85.4069 49.5546 85.0831C49.5685 84.9188 49.5921 84.7546 49.6155 84.5903C49.6671 84.229 49.7095 83.8629 49.7377 83.5016C49.9222 80.9628 49.4621 78.4186 48.4001 76.1053V76.1006C48.3061 75.9129 48.25 75.8097 48.25 75.8097C48.25 75.8097 49.6155 74.6364 51.5631 75.8097C51.6875 75.8828 51.7974 75.9782 51.8871 76.0912C53.0604 77.4756 53.3794 82.1312 53.323 85.4585Z" fill="#2F2E41"/>
<path d="M74.6328 84.8203C74.614 85.3459 74.5858 85.895 74.553 86.4535V86.4582C74.5484 86.4628 74.5388 86.4628 74.5342 86.4675C73.4719 86.9757 72.3758 87.4101 71.2537 87.7675C71.2491 87.7675 71.2445 87.7722 71.2397 87.7722L71.1882 86.4535L71.1833 86.2798L70.9347 79.8597C70.9281 79.7144 70.9509 79.5692 71.0019 79.433C71.0529 79.2967 71.131 79.1722 71.2314 79.067C71.3319 78.9617 71.4526 78.8779 71.5863 78.8205C71.72 78.7632 71.8639 78.7336 72.0094 78.7334H74.3887C74.506 78.7334 74.5906 78.9727 74.647 79.4045V79.4092C74.7624 81.2112 74.7576 83.0189 74.6328 84.8203Z" fill="#2F2E41"/>
<path d="M57.7109 53.8595V61.2745H59.4277L61.6123 58.9336L61.3199 61.2745H68.9086L68.4393 58.9336L69.3779 61.2745H70.5877V53.8595H57.7109Z" fill="#2F2E41"/>
<path d="M56.5423 62.6383C56.8655 62.6383 57.1275 62.158 57.1275 61.5655C57.1275 60.973 56.8655 60.4927 56.5423 60.4927C56.219 60.4927 55.957 60.973 55.957 61.5655C55.957 62.158 56.219 62.6383 56.5423 62.6383Z" fill="#A0616A"/>
<path d="M71.5618 62.6383C71.885 62.6383 72.147 62.158 72.147 61.5655C72.147 60.973 71.885 60.4927 71.5618 60.4927C71.2386 60.4927 70.9766 60.973 70.9766 61.5655C70.9766 62.158 71.2386 62.6383 71.5618 62.6383Z" fill="#A0616A"/>
<path d="M87.5354 55.1931C86.2853 51.6019 84.2669 48.3266 81.621 45.5956C78.975 42.8646 75.7652 40.7436 72.2153 39.3806C68.6655 38.0176 64.861 37.4454 61.0672 37.7037C57.2735 37.9621 53.5818 39.045 50.2495 40.8767C46.9172 42.7085 44.0246 45.2451 41.7734 48.3096C39.5222 51.3742 37.9666 54.8929 37.215 58.6204C36.4634 62.348 36.534 66.1946 37.4218 69.892C38.3096 73.5895 39.9932 77.0488 42.3553 80.0287C42.59 80.3244 42.834 80.62 43.0827 80.9063C43.1014 80.9251 43.1154 80.9439 43.1342 80.9626C43.7461 81.6674 44.3964 82.338 45.082 82.9713C45.2603 83.1355 45.448 83.3045 45.6357 83.464C45.9924 83.7832 46.3584 84.0882 46.7386 84.3792C47.4808 84.9642 48.2548 85.5079 49.0569 86.0077L49.0851 86.0217C49.606 86.3456 50.1362 86.6459 50.6761 86.9322L50.8966 87.0448C51.4034 87.3076 51.9197 87.5564 52.45 87.7863C52.5579 87.8333 52.6752 87.8802 52.7832 87.9271C52.7926 87.9318 52.7974 87.9318 52.8068 87.9365C53.8783 88.3821 54.979 88.7537 56.1013 89.0488C58.3012 89.6351 60.5683 89.9317 62.8451 89.9311C63.6757 89.9311 64.497 89.8935 65.3089 89.8137C67.164 89.6425 68.9954 89.2728 70.7717 88.7109C70.7765 88.7109 70.7811 88.7062 70.7857 88.7062C71.9078 88.3487 73.0039 87.9144 74.0662 87.4062C74.0708 87.4015 74.0804 87.4015 74.085 87.3968C74.3242 87.2842 74.5543 87.1622 74.789 87.0448L74.9017 86.9885C75.0894 86.89 75.2771 86.7914 75.4647 86.6882C75.934 86.43 76.394 86.1578 76.8493 85.8669C76.976 85.7918 77.0979 85.712 77.2246 85.6275C77.6376 85.3553 78.0459 85.0644 78.4401 84.7687C78.5106 84.7171 78.5856 84.6655 78.6561 84.6091C83.0528 81.2717 86.2799 76.628 87.875 71.3437C89.4701 66.0594 89.3512 60.4057 87.5354 55.1931ZM77.7925 83.4687C77.6376 83.5907 77.4781 83.7081 77.3186 83.816C77.1637 83.9333 77.0088 84.046 76.8493 84.1492C76.7132 84.2478 76.577 84.3416 76.4361 84.4308C76.3188 84.5106 76.2015 84.5857 76.0841 84.6608C75.6948 84.9048 75.3007 85.1395 74.9017 85.3647C74.8593 85.3882 74.8171 85.4117 74.7747 85.4351C74.5965 85.5337 74.4182 85.6275 74.2399 85.7214C74.2163 85.7355 74.1881 85.7449 74.1647 85.7589L74.1366 85.773C73.9113 85.8903 73.6815 86.003 73.4514 86.1109C72.564 86.5383 71.6501 86.9082 70.7153 87.2185C70.5934 87.2607 70.4713 87.303 70.3493 87.3405C68.6681 87.8752 66.9342 88.2276 65.1776 88.3917C64.4079 88.4621 63.6287 88.4997 62.845 88.4997C60.6915 88.5041 58.5469 88.2232 56.4672 87.6643C55.3999 87.3857 54.3539 87.0313 53.337 86.6037C53.2291 86.5614 53.1211 86.5145 53.0178 86.4723C52.9617 86.4488 52.9099 86.4253 52.8535 86.3972C52.4124 86.2048 51.9761 85.9936 51.5489 85.773L51.3425 85.6651C50.8216 85.3929 50.3099 85.1019 49.8124 84.7922C49.6295 84.6795 49.4464 84.5622 49.2682 84.4402C48.7049 84.0694 48.1559 83.6705 47.6208 83.2528C47.2594 82.9807 46.9122 82.6897 46.5742 82.3893C46.396 82.2391 46.2223 82.0749 46.0534 81.92C45.388 81.3055 44.7581 80.6537 44.1668 79.9677C43.9697 79.7424 43.7772 79.5172 43.5941 79.2825C43.5525 79.2361 43.5133 79.1875 43.4768 79.137C40.4276 75.2893 38.5935 70.6205 38.2085 65.7261C37.8234 60.8318 38.9049 55.9336 41.3149 51.6564C43.725 47.3792 47.3544 43.9167 51.7403 41.7105C56.1261 39.5044 61.0697 38.6545 65.9405 39.2694C70.8114 39.8842 75.3887 41.9359 79.0887 45.1628C82.7888 48.3896 85.4439 52.6454 86.7155 57.3873C87.987 62.1293 87.8174 67.1425 86.2282 71.7877C84.6389 76.4328 81.7022 80.4994 77.7925 83.4687H77.7925Z" fill="#CBCBCB"/>
<path d="M248.377 94.3989C248.609 94.5677 248.827 94.7546 249.03 94.9577L274.257 89.9819L276.284 84.0732L285.601 85.9666L283.029 96.7754C282.822 97.6487 282.336 98.4309 281.646 99.0048C280.956 99.5786 280.098 99.9131 279.202 99.9581L249.985 101.422C249.457 102.393 248.646 103.18 247.659 103.678C246.673 104.177 245.558 104.363 244.463 104.213C243.368 104.062 242.345 103.582 241.53 102.836C240.714 102.089 240.146 101.113 239.899 100.035C239.652 98.9581 239.74 97.8312 240.149 96.8046C240.558 95.778 241.271 94.9004 242.191 94.2885C243.111 93.6766 244.196 93.3594 245.301 93.3792C246.406 93.3989 247.479 93.7546 248.377 94.3989Z" fill="#FFB7B7"/>
<path d="M273.644 88.8132C273.478 88.5217 273.378 88.1979 273.349 87.8639C273.32 87.5299 273.363 87.1935 273.476 86.8778L277.413 75.8496C277.747 74.1669 278.734 72.6851 280.158 71.729C281.582 70.7728 283.327 70.4204 285.01 70.7489C286.694 71.0774 288.179 72.06 289.139 73.4814C290.099 74.9028 290.456 76.6469 290.133 78.3314L289.563 90.0656C289.546 90.4005 289.458 90.7279 289.304 91.0256C289.15 91.3233 288.933 91.5842 288.669 91.7907C288.405 91.9971 288.099 92.1442 287.773 92.2219C287.447 92.2995 287.108 92.306 286.779 92.2409L275.22 89.9503C274.891 89.8853 274.58 89.75 274.308 89.5538C274.036 89.3576 273.809 89.105 273.644 88.8132Z" fill="#06053A"/>
<path d="M267.316 231.844L259.899 231.844L256.371 203.237L267.317 203.237L267.316 231.844Z" fill="#FFB7B7"/>
<path d="M269.207 239.033L245.293 239.033V238.73C245.293 236.262 246.274 233.894 248.019 232.149C249.765 230.403 252.132 229.422 254.601 229.422H254.602L269.208 229.423L269.207 239.033Z" fill="#2F2E41"/>
<path d="M337.549 224.071L330.68 226.868L316.625 201.703L326.763 197.576L337.549 224.071Z" fill="#FFB7B7"/>
<path d="M342.009 230.017L319.86 239.034L319.746 238.753C318.815 236.467 318.83 233.905 319.789 231.63C320.747 229.355 322.57 227.554 324.857 226.623L324.857 226.622L338.385 221.115L342.009 230.017Z" fill="#2F2E41"/>
<path d="M274.064 113.056L270.652 95.0011C269.91 92.3427 269.778 89.551 270.267 86.8345C270.755 84.1181 271.851 81.547 273.472 79.3133L285.947 62.6337L297.863 62.9841C303.497 76.6381 304.534 91.7549 300.818 106.051L298.628 114.476C308.45 123.336 315.036 148.177 321.031 175.935L337.464 212.279L309.191 220.863L290.874 167.562L274.511 221.259L250.551 220.339L268.775 137.281L274.064 113.056Z" fill="#2F2E41"/>
<path d="M293.05 59.2624C299.469 59.2624 304.674 54.0582 304.674 47.6385C304.674 41.2188 299.469 36.0146 293.05 36.0146C286.63 36.0146 281.426 41.2188 281.426 47.6385C281.426 54.0582 286.63 59.2624 293.05 59.2624Z" fill="#FFB7B7"/>
<path d="M338.932 74.04C336.772 69.8216 336.035 65.0317 334.373 60.5937C332.711 56.1558 329.691 51.7526 325.113 50.5295C322.516 49.8357 319.756 50.2593 317.088 49.929C314.743 49.6385 312.218 48.441 311.319 46.3578C311.5 44.2927 311.242 42.2128 310.563 40.2543C308.889 35.4999 304.899 31.7466 300.247 29.8064C296.468 28.2302 292.117 27.7851 288.258 29.1538C284.399 30.5225 281.16 33.8676 280.466 37.9028C279.772 41.9381 281.997 46.4438 285.832 47.8772C288.585 48.9063 292.132 48.5637 293.93 50.8894C295.751 53.2455 294.445 56.6791 292.791 59.1554L292.904 59.2703C298.308 59.3336 304.149 58.2895 307.87 54.3717C308.274 53.9439 308.646 53.4867 308.982 53.0038C309.096 53.1867 309.215 53.365 309.344 53.5354C311.218 56.024 314.152 57.4358 316.947 58.8112C319.742 60.1866 322.641 61.7303 324.32 64.3545C327.354 69.0969 325.363 75.4842 327.098 80.84C327.87 83.2243 329.359 85.3122 331.362 86.8189C333.365 88.3256 335.784 89.1777 338.288 89.259C340.793 89.3402 343.262 88.6466 345.358 87.2728C347.455 85.899 349.076 83.912 350.001 81.5828C345.279 81.9773 341.091 78.2583 338.932 74.04Z" fill="#2F2E41"/>
<path d="M226.281 103.785L226.773 91.8405L243.643 58.2995C244.118 57.3459 244.894 56.5749 245.85 56.1047C246.436 55.8126 247.074 55.6402 247.727 55.5976C248.38 55.5549 249.035 55.6429 249.654 55.8564C250.37 56.1035 251.02 56.5128 251.552 57.0523C252.085 57.5918 252.485 58.247 252.723 58.9668C252.825 59.2776 252.896 59.5975 252.936 59.922C253.056 60.8851 252.886 61.8621 252.447 62.7278L235.555 96.3142L226.281 103.785Z" fill="#06053A"/>
<path d="M247.954 55.8226L229.642 92.2313L228.246 91.5291L245.957 56.3152C246.578 56.0045 247.26 55.8362 247.954 55.8226Z" fill="#3F3D56"/>
<path d="M252.706 59.9516L235.092 94.9726L233.695 94.2704L251.969 57.9371C252.194 58.28 252.373 58.6508 252.502 59.0402C252.599 59.3368 252.667 59.642 252.706 59.9516Z" fill="#3F3D56"/>
<path d="M250.95 56.8266L232.435 93.6378L231.039 92.9356L249.577 56.0782C249.774 56.1458 249.967 56.2269 250.153 56.321C250.435 56.4629 250.702 56.6322 250.95 56.8266Z" fill="#3F3D56"/>
<path d="M228.402 101.778L226.539 103.278L226.695 99.3225C227.335 99.5444 228.027 100.507 228.402 101.778Z" fill="#3F3D56"/>
<path d="M247.608 64.176C247.672 64.4558 247.714 64.7401 247.733 65.0264L270.005 77.8754L275.419 74.7588L281.19 82.3143L272.142 88.7629C271.411 89.2838 270.531 89.5536 269.634 89.5318C268.737 89.5099 267.871 89.1976 267.166 88.6416L244.199 70.5229C243.163 70.9066 242.034 70.9656 240.963 70.6921C239.892 70.4187 238.93 69.8256 238.204 68.992C237.479 68.1583 237.024 67.1234 236.901 66.0251C236.778 64.9268 236.992 63.817 237.515 62.8433C238.038 61.8697 238.845 61.0784 239.829 60.5746C240.813 60.0708 241.926 59.8785 243.022 60.0232C244.118 60.1678 245.144 60.6427 245.963 61.3845C246.782 62.1263 247.356 63.1 247.608 64.176Z" fill="#FFB7B7"/>
<path d="M270.313 76.591C270.38 76.2625 270.517 75.9523 270.715 75.6817C270.913 75.411 271.167 75.1862 271.46 75.0226L281.68 69.3075C283.038 68.2594 284.757 67.7925 286.458 68.0092C288.16 68.2259 289.706 69.1086 290.758 70.4637C291.81 71.8187 292.282 73.5356 292.07 75.2379C291.857 76.9401 290.979 78.4889 289.627 79.5445L281.478 88.0067C281.245 88.2482 280.963 88.4367 280.651 88.5594C280.339 88.6821 280.005 88.7362 279.67 88.7178C279.335 88.6995 279.008 88.6092 278.711 88.4531C278.415 88.2971 278.155 88.0789 277.95 87.8135L270.752 78.484C270.547 78.2186 270.401 77.9121 270.326 77.5854C270.25 77.2587 270.246 76.9195 270.313 76.591Z" fill="#06053A"/>
<path d="M348.521 239.346H169.715C169.591 239.346 169.472 239.296 169.384 239.208C169.296 239.12 169.246 239.001 169.246 238.877C169.246 238.752 169.296 238.633 169.384 238.545C169.472 238.457 169.591 238.407 169.715 238.407H348.521C348.645 238.407 348.765 238.457 348.853 238.545C348.941 238.633 348.99 238.752 348.99 238.877C348.99 239.001 348.941 239.12 348.853 239.208C348.765 239.296 348.645 239.346 348.521 239.346Z" fill="#CBCBCB"/>
</g>
<defs>
<clipPath id="clip0">
<rect width="350" height="239.346" fill="white"/>
</clipPath>
</defs>
</svg>
