<svg id="Layer_1" data-name="Layer 1" xmlns="http://www.w3.org/2000/svg" xmlns:xlink="http://www.w3.org/1999/xlink" viewBox="0 0 946.05 604.14"><defs><style>.cls-1,.cls-10,.cls-2,.cls-3,.cls-5,.cls-6,.cls-7,.cls-8,.cls-9{stroke:#000;stroke-miterlimit:10;}.cls-1{fill:url(#linear-gradient);}.cls-2{fill:#8285c5;}.cls-3{fill:none;}.cls-4{fill:url(#linear-gradient-2);}.cls-5{fill:url(#linear-gradient-3);}.cls-6{fill:#64bad0;}.cls-7{fill:url(#linear-gradient-4);}.cls-8{fill:url(#linear-gradient-5);}.cls-9{fill:#bf9ac9;}.cls-10{fill:#1b1464;}</style><linearGradient id="linear-gradient" x1="365.96" y1="416.81" x2="477.06" y2="436.87" gradientUnits="userSpaceOnUse"><stop offset="0.13" stop-color="#fff"/><stop offset="0.23" stop-color="#cbcee7"/><stop offset="0.37" stop-color="#838bc5"/><stop offset="0.58" stop-color="#6d4eb1"/></linearGradient><linearGradient id="linear-gradient-2" x1="233.17" y1="-178.76" x2="455.52" y2="-178.76" gradientTransform="matrix(0.99, 0.41, -0.41, 0.98, 184.75, 263.58)" gradientUnits="userSpaceOnUse"><stop offset="0" stop-color="#620b2a"/><stop offset="0" stop-color="#6c112b" stop-opacity="0.99"/><stop offset="0.02" stop-color="#87212d" stop-opacity="0.96"/><stop offset="0.04" stop-color="#9d2d2f" stop-opacity="0.93"/><stop offset="0.06" stop-color="#ac3630" stop-opacity="0.91"/><stop offset="0.1" stop-color="#b53b31" stop-opacity="0.9"/><stop offset="0.19" stop-color="#b73c31" stop-opacity="0.9"/><stop offset="0.37" stop-color="#db7c43" stop-opacity="0.85"/><stop offset="0.52" stop-color="#f5ab51" stop-opacity="0.81"/><stop offset="0.6" stop-color="#ffbd56" stop-opacity="0.8"/><stop offset="0.76" stop-color="#ffd97a" stop-opacity="0.84"/><stop offset="1" stop-color="#ffffa9" stop-opacity="0.9"/></linearGradient><linearGradient id="linear-gradient-3" x1="411.11" y1="190.58" x2="646.2" y2="245.54" gradientUnits="userSpaceOnUse"><stop offset="0.19" stop-color="#4b66ea"/><stop offset="0.3" stop-color="#506aeb"/><stop offset="0.42" stop-color="#5e76ec"/><stop offset="0.55" stop-color="#7489ef"/><stop offset="0.68" stop-color="#95a4f3"/><stop offset="0.82" stop-color="#bec8f7"/><stop offset="0.96" stop-color="#eff2fd"/><stop offset="1" stop-color="#fff"/></linearGradient><linearGradient id="linear-gradient-4" x1="704" y1="447.23" x2="435.08" y2="398.73" gradientUnits="userSpaceOnUse"><stop offset="0.13" stop-color="#fff"/><stop offset="0.14" stop-color="#f2f4fe"/><stop offset="0.17" stop-color="#cbd3f9"/><stop offset="0.21" stop-color="#a8b5f5"/><stop offset="0.24" stop-color="#8b9df2"/><stop offset="0.29" stop-color="#7489ef"/><stop offset="0.33" stop-color="#6179ed"/><stop offset="0.39" stop-color="#556eeb"/><stop offset="0.46" stop-color="#4d68ea"/><stop offset="0.62" stop-color="#4b66ea"/></linearGradient><linearGradient id="linear-gradient-5" x1="608.45" y1="450.44" x2="468.65" y2="443.22" gradientUnits="userSpaceOnUse"><stop offset="0.09" stop-color="#fff"/><stop offset="0.11" stop-color="#f7f6fc"/><stop offset="0.21" stop-color="#c5bce8"/><stop offset="0.32" stop-color="#9b8ad6"/><stop offset="0.42" stop-color="#7762c8"/><stop offset="0.52" stop-color="#5c42bd"/><stop offset="0.61" stop-color="#492bb5"/><stop offset="0.7" stop-color="#3d1eb1"/><stop offset="0.78" stop-color="#3919af"/></linearGradient></defs><path class="cls-1" d="M422.31,521.3l-27.71-4.69c-18.05-3.05-30.15-19.38-26.89-36.28L391.09,359.2c3.26-16.9,20.7-28.23,38.75-25.17l27.71,4.68c18.05,3.06,30.15,19.39,26.89,36.29L461.06,496.12C457.8,513,440.36,524.35,422.31,521.3Z"/><path class="cls-2" d="M418.38,376.48l-3.31-.56c-6.64-1.13-11.09-7.13-9.89-13.35l.86-4.45c1.2-6.21,7.61-10.38,14.25-9.26l3.31.56c6.64,1.13,11.09,7.13,9.89,13.35l-.85,4.45C431.44,373.43,425,377.6,418.38,376.48Z"/><path class="cls-2" d="M380.14,507.62l-2.27-.39a8,8,0,0,1-6.78-9.15l.59-3.05a8.41,8.41,0,0,1,9.77-6.35l2.27.39a8,8,0,0,1,6.78,9.15l-.58,3A8.42,8.42,0,0,1,380.14,507.62Z"/><path class="cls-2" d="M406.36,512.05l-2.27-.38a7.94,7.94,0,0,1-6.78-9.15l.58-3a8.42,8.42,0,0,1,9.77-6.35l2.28.38a8,8,0,0,1,6.78,9.15l-.59,3.05A8.41,8.41,0,0,1,406.36,512.05Z"/><path class="cls-2" d="M492.4,272.25a82.34,82.34,0,0,0-11-1.57c-3.85-.31-7.8-.45-11.77-.45a208.09,208.09,0,0,0-24,1.41,169.75,169.75,0,0,0-23.36,4.23c-1.86.48-3.66,1-5.39,1.59-.88.29-1.68.61-2.52.9s-1.61.63-2.28,1c-.37.18-.66.29-1.11.52l-1.34.68-2.65,1.38c-1.76.93-3.47,1.88-5.16,2.86a76,76,0,0,0-17.53,13.34,38.06,38.06,0,0,0-5.84,8,42.93,42.93,0,0,0-3.67,9.29c-1.8,6.67-2.24,14.27-2.24,22.26,0,4,.15,8.14.27,12.37l.17,6.46,0,3.38,0,3.41c-.25,9.1-1.18,18.59-4.3,28.13a63.68,63.68,0,0,1-6.46,14,54.13,54.13,0,0,1-10.48,12c-1,.84-2,1.74-3.12,2.49-.53.39-1.06.77-1.58,1.12s-1.06.71-1.57,1c-2.06,1.32-4,2.46-5.89,3.52a65.59,65.59,0,0,0-9,5.81,17.27,17.27,0,0,0-2.74,2.81,20.16,20.16,0,0,0-2.18,3.54c-.33.65-.63,1.33-.91,2s-.48,1.45-.74,2.17-.38,1.47-.59,2.21-.25,1.51-.41,2.26a32.63,32.63,0,0,0,3,18.43,36.2,36.2,0,0,0,5.29,8.1l.81.91.41.45c.12.12.24.21.35.31s.46.4.68.61a4.35,4.35,0,0,0,.74.63c.61.42,1.21.86,1.8,1.3l2.12,1.24c.66.44,1.53.79,2.29,1.19s1.55.79,2.41,1.13l2.52,1.06,2.64,1,1.32.48,1.36.43,2.73.85c1.87.48,3.7,1.06,5.6,1.46l2.83.65,2.86.55c1.91.4,3.83.64,5.74,1,1,.14,1.91.23,2.87.35s1.91.23,2.86.29l2.84.22,2.79.1a5.56,5.56,0,0,1,2.79.88,9.15,9.15,0,0,1,2.37,2.29,15.88,15.88,0,0,1,2.88,7.58,11,11,0,0,1-2,7.94,8.51,8.51,0,0,1-2.91,2.46,7.33,7.33,0,0,1-3.67.86,136,136,0,0,1-27.33-3.71c-2.24-.48-4.45-1.16-6.67-1.74l-3.31-1-1.66-.52-1.66-.6-3.31-1.21-3.32-1.4c-1.1-.44-2.22-1-3.32-1.55s-2.21-1-3.33-1.73l-3.34-2c-1.12-.79-2.24-1.59-3.35-2.41a16,16,0,0,1-1.67-1.41l-1.66-1.52c-.27-.25-.56-.51-.81-.76l-.65-.73-1.3-1.45a58.29,58.29,0,0,1-8.53-13,54.66,54.66,0,0,1-4.94-30.9c.23-1.32.41-2.66.71-4s.61-2.63,1-3.91.82-2.59,1.32-3.83,1-2.5,1.67-3.74a42,42,0,0,1,4.49-7.21,39.1,39.1,0,0,1,6.06-6.26,83.23,83.23,0,0,1,12.17-8c1.82-1,3.49-2,5-3,.39-.24.74-.48,1.09-.72s.68-.47,1-.7c.66-.45,1.2-1,1.82-1.47,9.64-7.77,13.2-22.31,13.47-37.8l0-2.93,0-3-.16-6.21c-.12-4.2-.26-8.51-.28-12.95s.11-9,.53-13.69a83.58,83.58,0,0,1,2.45-14.31,65,65,0,0,1,5.64-14.21,60.41,60.41,0,0,1,9-12.42,97.58,97.58,0,0,1,22.56-17.36c2-1.14,3.94-2.24,5.92-3.28,1-.52,2-1,3-1.54l1.49-.76c.49-.25,1.17-.55,1.75-.83,1.22-.59,2.36-1,3.55-1.5s2.31-.87,3.45-1.23q3.41-1.14,6.75-2a191.57,191.57,0,0,1,26.47-4.82,230.06,230.06,0,0,1,26.56-1.55c4.47,0,9,.15,13.54.52a105,105,0,0,1,14,2,7.83,7.83,0,0,1,1.85.66,8.51,8.51,0,0,1,1.65,1.11,8.77,8.77,0,0,1,2.32,3.2,9.44,9.44,0,0,1,.72,4,11.74,11.74,0,0,1-1,4.21h0a18.32,18.32,0,0,1-4.83,6.47,9,9,0,0,1-2.73,1.62,4.83,4.83,0,0,1-1.36.3A4.39,4.39,0,0,1,492.4,272.25Z"/><path class="cls-3" d="M354.55,504.37c2.43-3.56,4.54-10.32,4.08-14.12"/><path class="cls-3" d="M371.77,506.7c2-3.81,3.21-10.78,2.3-14.51"/><path class="cls-3" d="M337.92,499.33c3-3.13,6-9.59,6.08-13.37"/><path class="cls-3" d="M323.56,490.37c3.88-2.14,8.14-7.79,9.37-11.34"/><path class="cls-3" d="M304.19,457.87c4.23,1.16,11.3.23,14.61-1.5"/><path class="cls-3" d="M311,475.74c4.37-.46,10.6-3.79,13.14-6.59"/><path class="cls-3" d="M305,438.67c3.46,2.73,10.3,4.48,14.09,4.17"/><path class="cls-3" d="M311.69,423.83a19.84,19.84,0,0,0,5.31,5.53,24,24,0,0,0,6.35,3.42"/><path class="cls-3" d="M338,404.43c1.47,3.88,4.71,10.25,8.09,12.26"/><path class="cls-3" d="M324.84,413.23c.75,4.26,4.27,10.43,7.23,12.79"/><path class="cls-3" d="M346.66,394.58a43.69,43.69,0,0,0,5.67,5.09c2.17,1.62,4.51,3,6.45,3.25"/><path class="cls-3" d="M351.23,384.17c3.47,2.3,9.92,5.33,13.82,5"/><path class="cls-3" d="M354.32,352.91c4.05,1.31,11.12,1.83,14.69.35"/><path class="cls-3" d="M354.78,368.63c3.9,1.62,10.88,3,14.58,1.87"/><path class="cls-3" d="M353.87,336.47c4,1.53,11.07,2.09,14.67.77"/><path class="cls-3" d="M354.64,322.28c3.83,2,10.81,3.21,14.52,2.32"/><path class="cls-3" d="M367.47,289.89c2.14,3.82,7.6,8.3,11.18,9.54"/><path class="cls-3" d="M359.19,306.54c3.29,2.89,9.92,5.39,13.69,5.4"/><path class="cls-3" d="M380.23,277.27c1.19,4.15,5.22,10,8.43,12"/><path class="cls-3" d="M392.15,269.36c.7,4.25,3.88,10.59,6.82,13"/><path class="cls-3" d="M424.56,256.67c-.66,4.24.32,11.26,2.35,14.5"/><path class="cls-3" d="M407.91,262.09c-.09,4.37,2.29,11,4.72,13.92"/><path class="cls-3" d="M441.12,253.79c-1,4.17-.66,11.25,1.12,14.65"/><path class="cls-3" d="M454.89,252.52c-1.24,4.1-1.32,11.2.25,14.69"/><path class="cls-3" d="M472.23,251.87c-1.57,4-2.21,11.06-.94,14.67"/><path class="cls-3" d="M488.49,252.1c-2.08,3.79-3.41,10.75-2.56,14.47"/><ellipse class="cls-4" cx="597.81" cy="230.13" rx="119.49" ry="115.68" transform="translate(-35.45 133.59) rotate(-12.39)"/><path class="cls-5" d="M600.18,234.78l31.23,118.63a122.41,122.41,0,0,1-54.76,3.28c-66.07-11.18-109.81-75.41-96.91-142.29s77.89-112.71,144-101.53a118.44,118.44,0,0,1,84.78,60.85Z"/><ellipse class="cls-6" cx="611.56" cy="233.6" rx="20.03" ry="19.53" transform="translate(-42.87 250.84) rotate(-22.41)"/><path class="cls-7" d="M624.81,344.55,491.43,284l-.55,10.58a49.8,49.8,0,0,1-15.08,33.14l-17.14,16.57a72.16,72.16,0,0,0-15.31,21.53l-20.56,44.23a88.27,88.27,0,0,0-8,44.79L420.58,521,654.1,560.52l18.8-98.22a52.64,52.64,0,0,0-.65-30.06L666,412.91a43.13,43.13,0,0,0-8.5-15l-19.69-22.53A45.75,45.75,0,0,1,628,356.65Z"/><path class="cls-8" d="M521.16,346.3l-28.35,13.09a6.58,6.58,0,0,0-3,2.73L443.62,443.7a12.76,12.76,0,0,0-1.63,5.41l-5.09,74.66L590,549.67l15.28-52.56a17,17,0,0,0,.36-8l-13.23-68a16.46,16.46,0,0,0-4.15-8.12l-61.63-65.65A4.74,4.74,0,0,0,521.16,346.3Z"/><path class="cls-9" d="M481.64,238.47a3.78,3.78,0,0,0-4.51,4.33c4.07,21.16,7.61,33.5,10.65,37.83h0s-2.6.52,3.38,9.49c1,7.05.66,11.13-.87,14-2.07,3.9-3.53,6.68-2.64,8.5s5.2,1.48,6.15,1.41c11.8-.81,35.14,10.89,82,30.22,9.66,4,17.8,7.87,30.41,12.26,11,3.82,24.4,12.33,25.47,7.29,1.21-5.69-4.89-13.52,1.67-20.57,2.92-3.14,5.06-2.49,15.72-7,0,0,6.73-2.87,15.06-7.51,2.84-1.58,27.59-19.54,25.65-23.22-3.42-6.5-46.69-3.25-51.64-18.43-1.69-5.2,1.42-12.43-3.3-16.2a9.91,9.91,0,0,0-6.45-1.84Z"/><polygon class="cls-10" points="546.55 483.58 482.57 472.75 489.6 436.36 553.58 447.19 546.55 483.58"/></svg>