<svg width="350" height="234" viewBox="0 0 350 234" fill="none" xmlns="http://www.w3.org/2000/svg">
<g clip-path="url(#clip0)">
<path opacity="0.1" d="M340.938 217.352C337.248 220.411 332.793 222.591 327.983 224.205C327.283 224.444 326.573 224.668 325.853 224.876C323.994 225.429 322.092 225.909 320.173 226.328C319.228 226.54 318.275 226.734 317.322 226.915C315.702 227.227 314.075 227.506 312.458 227.761C306.457 228.703 300.416 229.401 294.344 229.931C292.472 230.096 290.6 230.245 288.726 230.377L287.977 230.431L286.636 230.521L285.81 230.575C284.556 230.659 283.301 230.733 282.05 230.803C277.035 231.085 272.014 231.289 266.992 231.474C263.302 231.601 259.649 231.709 255.979 231.809L248.516 232.027L246.587 232.084L245.742 232.108C243.532 232.175 241.32 232.239 239.106 232.299L238.483 232.316L236.537 232.373L232.847 232.474L231.747 232.504L230.74 232.531C207.316 233.161 183.875 233.621 160.465 233.423C158.591 233.409 156.718 233.389 154.846 233.363C137.463 233.138 120.101 232.531 102.768 231.35C96.6765 230.934 90.5445 230.431 84.4462 229.736C82.5677 229.524 80.6948 229.292 78.8275 229.042C63.8465 227.029 49.2345 223.635 36.1454 217.301C26.2867 212.521 17.1861 205.722 13.3687 196.675C9.51444 187.544 11.5539 177.29 15.955 168.34C20.356 159.39 26.9777 151.37 32.687 142.96C34.6493 140.065 36.5044 137.05 38.1849 133.95C38.2856 133.762 38.3895 133.571 38.4868 133.383C39.3478 131.766 40.1596 130.129 40.9222 128.472C41.6467 126.893 42.3176 125.299 42.9348 123.689C43.1204 123.208 43.2982 122.728 43.4682 122.25C43.4883 122.196 43.5084 122.142 43.5252 122.089C43.542 122.035 43.5688 121.968 43.589 121.908C44.6741 118.862 45.5198 115.736 46.1182 112.559L46.1987 112.116C46.2356 111.905 46.2725 111.697 46.3061 111.485C46.3396 111.274 46.3698 111.093 46.4 110.895C46.8661 107.917 47.0403 104.9 46.9199 101.888C46.9199 101.777 46.9199 101.667 46.9199 101.553C46.8455 100.009 46.6775 98.4707 46.4168 96.9471C46.3966 96.8162 46.3765 96.6888 46.3497 96.5613C45.9589 94.3758 45.3671 92.231 44.5819 90.1543C44.5483 90.0637 44.5114 89.9698 44.4745 89.8759C44.4745 89.8356 44.4443 89.792 44.4276 89.7518C44.176 89.1111 43.9076 88.4771 43.6124 87.8431C43.5655 87.7357 43.5118 87.6251 43.4615 87.5077C43.3642 87.303 43.2669 87.0984 43.1629 86.8971C42.6911 85.9333 42.1655 84.9818 41.5863 84.0425C40.9155 82.9255 40.154 81.8319 39.3724 80.7585L39.2617 80.6076L39.1711 80.4801C38.1447 79.0813 37.0713 77.7059 36.0247 76.3172C35.2028 75.2337 34.3978 74.1435 33.643 73.0332L33.5088 72.8319C32.594 71.4919 31.7778 70.0872 31.0668 68.6288C30.9259 68.3303 30.7884 68.0317 30.6609 67.7298C30.4328 67.1998 30.2215 66.6665 30.0336 66.1297C27.4574 58.8506 28.239 50.9005 29.4768 43.3195C31.3117 32.0552 34.7265 19.9155 45.2964 12.8845C54.5245 6.74255 67.0131 6.0247 78.8409 7.51743C80.7361 7.75224 82.6113 8.04408 84.4596 8.37952L85.4659 8.57072C100.427 11.4388 114.576 16.5174 128.55 21.955C131.814 23.2263 135.072 24.5178 138.325 25.8025C140.868 26.8066 143.412 27.8051 145.957 28.7981C148.897 29.943 151.861 31.0612 154.846 32.1525C156.711 32.8368 158.584 33.5077 160.465 34.1652C163.481 35.214 166.518 36.2103 169.575 37.154C171.74 37.8249 173.916 38.4566 176.103 39.0493C186.502 41.8804 197.169 43.8428 208.088 44.2218C216.405 44.5146 224.725 43.7435 232.847 41.9274C234.742 41.498 236.621 41.0049 238.466 40.4481C241.041 39.6724 243.572 38.7553 246.047 37.7008C252.289 35.0172 257.901 31.4749 262.343 26.9665L262.38 26.9296C268.958 20.2576 278.602 16.8663 288.705 16.2994C290.577 16.1937 292.452 16.1836 294.324 16.2692C301.349 16.5598 308.255 18.176 314.679 21.0325C330.66 28.2781 340.995 43.618 340.216 58.9378C339.086 81.2382 317.587 98.3559 304.76 117.865C303.854 119.241 302.992 120.66 302.19 122.109C301.895 122.639 301.613 123.172 301.338 123.709C298.178 129.881 296.28 136.546 297.313 142.95C297.493 144.079 297.767 145.191 298.131 146.274C298.289 146.747 298.467 147.22 298.665 147.69C300.137 151.199 302.465 154.174 305.337 156.821C306.639 158.01 308.008 159.124 309.439 160.155C321.408 168.856 338.744 174.344 346.402 186.232C352.809 196.091 350.441 209.459 340.938 217.352Z" fill="#06053A"/>
<path opacity="0.1" d="M294.35 175.361V123.672H301.364C301.639 123.135 301.921 122.602 302.216 122.072H294.35V67.7298H321.857C321.796 67.1964 321.729 66.6564 321.662 66.1297H294.35V16.2323C292.478 16.1467 290.603 16.1568 288.731 16.2625V66.1197H238.492V40.4212C236.647 40.9781 234.768 41.4712 232.873 41.9005V66.1197H161.158L160.987 65.8144L176.129 39.0224C173.942 38.4298 171.766 37.7981 169.601 37.1272L160.491 53.2453V34.1249C158.61 33.4719 156.737 32.801 154.872 32.1123V55.0164L138.351 25.7858C135.098 24.501 131.84 23.2095 128.576 21.9382L153.399 65.8312L153.225 66.1364H84.4722V8.34598C82.6239 8.01054 80.7487 7.7187 78.8535 7.48389V66.1197H30.0328C30.2206 66.6564 30.432 67.1897 30.6601 67.7197H78.8535V122.062H43.5445C43.5277 122.116 43.5076 122.169 43.4875 122.223C43.3175 122.701 43.1397 123.181 42.9541 123.662H78.8467V175.361H28.3086C28.4651 175.893 28.6273 176.426 28.795 176.961H78.8535V229.854C80.7319 230.35 82.6048 230.869 84.4722 231.41V176.961H154.875V233.369C156.747 233.396 158.62 233.416 160.494 233.43V176.961H232.873V232.467L236.563 232.366L238.509 232.309V176.961H288.718V230.384C290.592 230.25 292.465 230.101 294.337 229.938V176.961H316.308C316.248 176.427 316.191 175.894 316.134 175.361H294.35ZM154.872 175.361H84.4722V123.672H154.875L154.872 175.361ZM154.872 122.072H84.4722V67.7298H153.869L154.875 69.1823L154.872 122.072ZM232.873 175.361H160.491V123.672H232.873V175.361ZM232.873 122.072H160.491V67.7298H232.873V122.072ZM288.718 175.361H238.492V123.672H288.718V175.361ZM288.718 122.072H238.492V67.7298H288.718V122.072Z" fill="#06053A"/>
<path opacity="0.1" d="M266.432 32.2932C266.452 32.8064 266.267 33.3066 265.919 33.6839C265.571 34.0613 265.087 34.2849 264.573 34.3059H260.823C261.241 34.4294 261.606 34.6867 261.863 35.0382C262.12 35.3898 262.255 35.8161 262.245 36.2515C262.265 36.7647 262.081 37.2648 261.733 37.6422C261.384 38.0195 260.9 38.2432 260.387 38.2641H247.358C247.117 38.2629 246.878 38.2123 246.656 38.1154C246.435 38.0185 246.235 37.8773 246.07 37.7006C252.313 35.017 257.925 31.4747 262.366 26.9663L262.403 26.9294H262.812C263.06 26.9312 263.304 26.9843 263.53 27.0854C263.755 27.1864 263.958 27.3332 264.124 27.5165C264.471 27.9022 264.664 28.4029 264.664 28.922C264.664 29.4411 264.471 29.9418 264.124 30.3275H264.563C265.07 30.3459 265.549 30.5619 265.898 30.9293C266.248 31.2967 266.439 31.7863 266.432 32.2932Z" fill="#06053A"/>
<path opacity="0.1" d="M123.39 49.3473H122.957C123.3 48.964 123.489 48.4666 123.487 47.9519C123.507 47.4387 123.322 46.9385 122.974 46.5612C122.626 46.1838 122.142 45.9601 121.628 45.9392H108.6C108.087 45.9601 107.603 46.1838 107.254 46.5612C106.906 46.9385 106.721 47.4387 106.741 47.9519C106.721 48.4651 106.906 48.9652 107.254 49.3426C107.603 49.7199 108.087 49.9436 108.6 49.9645H109.036C108.691 50.3474 108.501 50.8448 108.502 51.36C108.494 51.7953 108.629 52.2213 108.885 52.5727C109.142 52.9241 109.507 53.1816 109.925 53.3056H106.175C105.681 53.3591 105.225 53.593 104.894 53.9623C104.562 54.3316 104.379 54.8103 104.379 55.3065C104.379 55.8027 104.562 56.2814 104.894 56.6507C105.225 57.0201 105.681 57.2539 106.175 57.3074H119.203C119.716 57.2865 120.2 57.0628 120.549 56.6855C120.897 56.3081 121.082 55.808 121.062 55.2948C121.074 54.8593 120.943 54.4317 120.688 54.0783C120.434 53.7248 120.07 53.465 119.653 53.3391H123.403C123.899 53.2893 124.36 53.0568 124.694 52.6868C125.029 52.3167 125.215 51.8355 125.215 51.3365C125.215 50.8375 125.029 50.3563 124.694 49.9863C124.36 49.6162 123.899 49.3837 123.403 49.3339L123.39 49.3473Z" fill="#06053A"/>
<path opacity="0.1" d="M284.558 130.911H284.122C284.467 130.528 284.656 130.03 284.652 129.515C284.672 129.002 284.487 128.502 284.139 128.125C283.791 127.747 283.307 127.524 282.794 127.503H269.765C269.252 127.524 268.769 127.748 268.42 128.126C268.072 128.503 267.887 129.002 267.906 129.515C267.887 130.028 268.072 130.528 268.42 130.905C268.769 131.282 269.252 131.506 269.765 131.528H270.201C269.857 131.911 269.668 132.409 269.671 132.923C269.661 133.359 269.796 133.785 270.053 134.136C270.31 134.487 270.676 134.743 271.093 134.866H267.343C266.846 134.916 266.386 135.148 266.051 135.518C265.717 135.888 265.531 136.369 265.531 136.868C265.531 137.367 265.717 137.848 266.051 138.219C266.386 138.589 266.846 138.821 267.343 138.871H280.372C280.884 138.849 281.368 138.625 281.716 138.248C282.064 137.871 282.249 137.371 282.23 136.858C282.239 136.423 282.104 135.997 281.847 135.647C281.59 135.296 281.225 135.039 280.808 134.916H284.558C285.054 134.866 285.515 134.634 285.849 134.264C286.184 133.894 286.37 133.412 286.37 132.913C286.37 132.414 286.184 131.933 285.849 131.563C285.515 131.193 285.054 130.961 284.558 130.911Z" fill="#06053A"/>
<path opacity="0.1" d="M54.4632 138.175C69.1142 136.064 78.7226 118.609 75.924 99.1887C73.1255 79.7683 58.9799 65.7364 44.3288 67.8477C29.6778 69.9589 20.0694 87.4138 22.868 106.834C25.6665 126.255 39.8121 140.286 54.4632 138.175Z" fill="black"/>
<path d="M55.1546 137.888C69.8056 135.777 79.414 118.322 76.6154 98.9018C73.8169 79.4814 59.6713 65.4495 45.0202 67.5608C30.3692 69.672 20.7608 87.1269 23.5594 106.547C26.3579 125.968 40.5035 140 55.1546 137.888Z" fill="#3A3768"/>
<path d="M74.7847 107.403C74.5931 110.692 73.9775 113.942 72.9532 117.074C71.7921 120.722 69.9125 124.102 67.425 127.013C64.406 130.465 60.5685 132.749 56.2144 133.386C55.4953 133.489 54.7704 133.545 54.0441 133.554C42.27 133.715 31.2741 121.478 28.9025 105.018C26.3967 87.5545 34.5313 71.906 47.097 70.1114C50.8373 69.5713 54.5439 70.316 57.9755 72.0939C62.9166 74.6433 67.2875 79.3328 70.3467 85.3909C72.399 89.5035 73.7709 93.9216 74.409 98.4733C74.8411 101.429 74.967 104.421 74.7847 107.403Z" fill="#06053A"/>
<path d="M56.9868 103.119L55.3633 117.909C55.3633 117.909 60.556 117.422 62.0722 114.826L57.2854 102.871L56.9868 103.119Z" fill="#06053A"/>
<path opacity="0.2" d="M56.9868 103.119L55.3633 117.909C55.3633 117.909 60.556 117.422 62.0722 114.826L57.2854 102.871L56.9868 103.119Z" fill="black"/>
<path opacity="0.2" d="M34.1386 102.626L42.3067 102.076C42.3067 102.076 43.1554 108.282 45.7349 111.774L39.9351 118.08C39.9351 118.08 33.9206 108.496 34.1386 102.626Z" fill="black"/>
<path opacity="0.3" d="M54.8219 101.857L35.5547 122.518L35.8 122.747L55.0673 102.085L54.8219 101.857Z" fill="white"/>
<path opacity="0.3" d="M28.6753 103.203L28.6484 102.868L55.4438 100.915L55.4706 101.247L28.6753 103.203Z" fill="white"/>
<path opacity="0.2" d="M70.3419 85.3775L68.024 88.1886C62.2913 77.2162 57.5078 76.5989 57.5078 76.5989L57.9707 72.0771C62.9185 74.6299 67.2894 79.3194 70.3419 85.3775Z" fill="black"/>
<path opacity="0.2" d="M44.9851 88.8628L55.565 99.9325L54.8237 100.244L42.5195 95.4073C42.5195 95.4073 43.5057 91.4726 44.9851 88.8628Z" fill="black"/>
<path opacity="0.3" d="M29.4195 89.9017L29.2969 90.2139L54.8233 100.243L54.9459 99.9311L29.4195 89.9017Z" fill="white"/>
<path opacity="0.2" d="M57.8633 100.852L66.4909 99.6306C66.4909 99.6306 67.0981 103.2 66.7761 104.243C66.7658 104.275 66.7535 104.306 66.7392 104.337L57.8633 100.852Z" fill="black"/>
<path opacity="0.2" d="M38.1875 81.966C38.1875 81.966 41.7935 76.7565 46.2851 75.3745L50.2568 84.871C50.2568 84.871 46.3858 86.3033 45.0306 89.1613L38.1875 81.966Z" fill="black"/>
<path opacity="0.3" d="M56.3995 99.0603L56.1111 99.0234C56.0473 99.0234 55.9769 99.0033 55.9299 98.802L44.1055 70.8259L44.4141 70.6951L55.8561 97.7722C55.8561 96.2661 56.0373 92.9116 56.6645 85.4345C57.218 78.833 57.8621 72.1576 57.8688 72.0905L58.2042 72.1241C57.2449 82.0566 55.9635 96.947 56.2184 98.6242L56.3995 99.0603Z" fill="white"/>
<path opacity="0.3" d="M34.6117 78.1002L34.3711 78.334L55.0533 99.6168L55.2939 99.3831L34.6117 78.1002Z" fill="white"/>
<path opacity="0.2" d="M64.2617 92.14L67.8745 88.0476C67.8745 88.0476 71.3061 96.5109 70.9203 99.0267L66.63 99.6305C66.63 99.6305 65.0869 92.3681 64.2617 92.14Z" fill="black"/>
<path opacity="0.3" d="M70.2177 85.2746L57.5273 99.563L57.7782 99.7857L70.4685 85.4973L70.2177 85.2746Z" fill="white"/>
<path opacity="0.3" d="M66.7877 99.7814L66.7675 99.6037C66.7675 99.55 66.7675 99.4997 66.7441 99.4493C66.7206 99.399 66.7441 99.3118 66.7172 99.2414C66.374 96.7914 65.6235 94.4161 64.4966 92.2138C64.4597 92.1434 64.4228 92.0729 64.3825 92.0025C64.3673 91.9676 64.3493 91.9339 64.3289 91.9018C62.5242 88.5474 59.9345 86.0416 57.0463 84.8575C56.939 84.8105 56.8317 84.7703 56.7109 84.73C55.2157 84.1583 53.6 83.9748 52.0147 84.1967C51.4249 84.2806 50.8451 84.4234 50.2838 84.6227C50.2401 84.6337 50.1975 84.6483 50.1563 84.6663L49.9651 84.7367C47.9452 85.5691 46.2191 86.9846 45.0072 88.8023L44.9703 88.856L44.873 89.0002C44.8521 89.0268 44.8331 89.0549 44.816 89.0841C44.6751 89.2954 44.5376 89.5101 44.4068 89.7349C44.2759 89.9596 44.1585 90.1642 44.0411 90.4057C43.284 91.8593 42.7309 93.4102 42.3974 95.0148C42.3706 95.1255 42.3471 95.2395 42.327 95.3502C41.9136 97.5076 41.8254 99.7146 42.0654 101.898L42.0855 102.096C42.0855 102.14 42.0855 102.187 42.1023 102.23C42.1257 102.415 42.1492 102.599 42.1761 102.784C42.6154 105.999 43.7734 109.074 45.5641 111.78C45.5842 111.814 45.6077 111.844 45.6311 111.878C45.6546 111.911 45.715 112.002 45.762 112.062C45.876 112.23 45.9934 112.398 46.1175 112.552C48.4657 115.675 51.6088 117.664 54.9028 117.899C55.0471 117.899 55.1947 117.916 55.3423 117.919H55.6777C56.0729 117.915 56.4674 117.885 56.8585 117.828C58.8719 117.513 60.7359 116.574 62.1887 115.145C62.2759 115.064 62.3631 114.98 62.447 114.893C63.8164 113.474 64.8834 111.792 65.5834 109.949C65.6304 109.835 65.674 109.721 65.7176 109.613C66.3038 108.005 66.6804 106.327 66.838 104.622L66.8682 104.27C66.9896 102.775 66.9626 101.271 66.7877 99.7814ZM65.4761 109.358C65.4358 109.476 65.3922 109.593 65.3486 109.694C64.6796 111.503 63.6528 113.158 62.3296 114.561C62.2457 114.648 62.1619 114.736 62.0747 114.816C60.6559 116.239 58.8204 117.172 56.835 117.48C56.4695 117.534 56.1008 117.563 55.7314 117.567H55.3959C51.9509 117.496 48.6501 115.42 46.2249 112.092L46.0169 111.8C45.9498 111.707 45.8861 111.613 45.8257 111.515C44.086 108.866 42.9616 105.861 42.535 102.72C42.5081 102.542 42.4847 102.364 42.4645 102.19C42.4645 102.076 42.4377 101.965 42.4276 101.854C42.1923 99.7218 42.2748 97.566 42.6725 95.4576C42.6926 95.3435 42.7128 95.2328 42.7396 95.1221C43.0659 93.5275 43.6135 91.9863 44.3665 90.5433L44.5879 90.1374C44.7456 89.859 44.9234 89.5873 45.081 89.329C45.1313 89.2518 45.1816 89.1747 45.2353 89.1009C45.2464 89.0811 45.2587 89.0621 45.2722 89.0438C46.4519 87.2543 48.1417 85.8602 50.1228 85.042L50.4381 84.9246C51.5742 84.5319 52.778 84.3733 53.977 84.4583C54.9087 84.5287 55.8251 84.7343 56.6975 85.0688L57.0329 85.1996C59.844 86.3804 62.3564 88.8627 64.1075 92.1601C64.1645 92.2641 64.2182 92.3715 64.2718 92.4788C65.343 94.6205 66.0569 96.923 66.3851 99.295L66.4153 99.4997C66.4153 99.5399 66.4153 99.5835 66.4153 99.6238C66.4153 99.664 66.4321 99.7613 66.4388 99.8318C66.6132 101.26 66.648 102.701 66.5428 104.136C66.5428 104.172 66.5428 104.209 66.5428 104.243L66.5227 104.488C66.3843 106.149 66.0325 107.786 65.4761 109.358Z" fill="white"/>
<path opacity="0.2" d="M74.7883 107.403C74.5967 110.692 73.9811 113.942 72.9567 117.074L69.5117 113.588C70.451 112.173 71.0279 106.074 71.0279 106.074L71.2258 106.212C71.4003 106.584 73.3056 107.071 74.7883 107.403Z" fill="black"/>
<path opacity="0.3" d="M58.1624 102.068L57.9258 102.306L72.8511 117.154L73.0877 116.916L58.1624 102.068Z" fill="white"/>
<path opacity="0.3" d="M74.7083 107.795L57.5 100.838L74.3863 98.2988L74.4366 98.6309L58.7646 100.986L74.8324 107.483L74.7083 107.795Z" fill="white"/>
<path opacity="0.2" d="M67.4278 127.026C64.4088 130.478 60.5713 132.762 56.2172 133.4C55.4981 133.502 54.7732 133.558 54.0469 133.567L54.7513 126.523C54.7513 126.523 61.2019 126.62 64.9388 121.414L67.4278 127.026Z" fill="black"/>
<path opacity="0.3" d="M57.5633 103.183L57.2539 103.312L67.227 127.142L67.5365 127.013L57.5633 103.183Z" fill="white"/>
<path opacity="0.3" d="M56.6131 103.431L54 133.542L54.3342 133.571L56.9473 103.46L56.6131 103.431Z" fill="white"/>
<path opacity="0.3" d="M71.1152 99.1307C71.1152 99.02 71.0917 98.9093 71.075 98.7952C71.0448 98.5202 71.0079 98.2451 70.9676 97.97C70.4893 94.5762 69.5233 91.2692 68.0996 88.1515V88.1214L67.9587 87.8228C65.4999 82.6402 61.9039 78.5947 57.8148 76.3741C57.7343 76.3271 57.6505 76.2835 57.5666 76.2399L57.4962 76.203C54.8296 74.7659 51.777 74.2083 48.7746 74.6096C47.9404 74.7301 47.1194 74.9289 46.3225 75.2034L46.0072 75.3174C43.3015 76.3766 40.9381 78.1576 39.1741 80.4665C38.8387 80.8892 38.5178 81.3297 38.2114 81.7882C38.1477 81.8821 38.084 81.976 38.0236 82.0733C36.1516 85.041 34.8766 88.3453 34.2699 91.8012C34.2465 91.9119 34.2263 92.0226 34.2096 92.1366C33.6214 95.5522 33.5411 99.036 33.9714 102.475C33.9714 102.586 33.9982 102.696 34.015 102.81C34.0318 102.925 34.0553 103.129 34.0787 103.29C34.1156 103.548 34.1559 103.81 34.1995 104.065C34.1995 104.065 34.1995 104.065 34.1995 104.089C34.3639 105.095 34.5685 106.071 34.81 107.03C34.8084 107.04 34.8084 107.051 34.81 107.061C35.7623 110.991 37.4391 114.71 39.7545 118.026C39.8182 118.12 39.8819 118.211 39.9524 118.305C40.6114 119.212 41.3285 120.076 42.0992 120.891C42.5487 121.367 43.0116 121.813 43.4813 122.233C46.5237 124.96 49.9218 126.51 53.3668 126.755C53.7694 126.781 54.1753 126.791 54.5778 126.781H54.7187C54.7846 126.785 54.8507 126.785 54.9166 126.781C55.3656 126.764 55.8135 126.724 56.2584 126.661C59.5591 126.184 62.548 124.52 64.9799 121.847C65.0101 121.817 65.037 121.783 65.0638 121.753L65.2282 121.572C66.4007 120.223 67.4002 118.734 68.2036 117.137C68.7309 116.104 69.1882 115.036 69.5722 113.941C69.5953 113.882 69.6155 113.823 69.6326 113.763C69.6557 113.705 69.6758 113.645 69.6929 113.585C70.4754 111.255 70.9755 108.839 71.1823 106.39C71.1823 106.336 71.1823 106.286 71.1991 106.232C71.2159 106.178 71.1991 106.105 71.2159 106.041C71.2852 105.128 71.321 104.206 71.3232 103.273C71.332 101.89 71.2626 100.507 71.1152 99.1307ZM70.8838 106.249C70.6898 108.652 70.2101 111.024 69.4548 113.313C69.4168 113.43 69.3765 113.541 69.334 113.649C68.9444 114.783 68.4759 115.888 67.9319 116.956C67.165 118.478 66.2166 119.902 65.1074 121.196C65.0303 121.29 64.9464 121.384 64.8625 121.475C62.4473 124.158 59.4954 125.835 56.2215 126.302C55.7988 126.362 55.3761 126.402 54.9535 126.422H54.618C50.7973 126.503 46.98 124.923 43.6121 121.864C43.1861 121.478 42.7668 121.065 42.3542 120.633C41.5792 119.812 40.8576 118.943 40.1939 118.03L40.0966 117.889L39.996 117.748C37.1481 113.723 35.1991 108.691 34.4108 103.213C34.3873 103.062 34.3672 102.911 34.3471 102.76C34.3471 102.703 34.3471 102.646 34.3236 102.586C34.3001 102.525 34.3236 102.482 34.3068 102.428C33.8802 99.0388 33.9537 95.6052 34.5249 92.2373L34.5853 91.9018C35.1789 88.49 36.4322 85.2267 38.2752 82.2947C38.3087 82.2388 38.3456 82.1817 38.3859 82.1236C38.4093 82.0833 38.4362 82.0431 38.463 82.0062C38.7582 81.56 39.0702 81.1307 39.3922 80.7214C41.1301 78.423 43.4709 76.6512 46.1548 75.6025L46.3795 75.522L46.4734 75.4885C47.2433 75.2249 48.0362 75.034 48.8417 74.9182C49.7681 74.7861 50.7058 74.7524 51.6393 74.8176C53.6813 74.9789 55.667 75.5651 57.4693 76.5384L57.5364 76.572L57.788 76.7095C60.1021 78.0261 62.1499 79.7633 63.826 81.8318C65.388 83.738 66.7022 85.8345 67.7373 88.071C67.7541 88.1012 67.7675 88.1348 67.7809 88.165L67.8916 88.3998C69.2657 91.4505 70.2008 94.6805 70.6691 97.9935C70.7093 98.2686 70.7462 98.5403 70.7798 98.8153C70.7798 98.8824 70.7798 98.9462 70.8033 99.0133C70.8267 99.0803 70.8033 99.1038 70.8033 99.1508C71.0584 101.378 71.1022 103.624 70.9341 105.86C70.914 106.001 70.8972 106.13 70.8838 106.249Z" fill="white"/>
<path d="M56.797 103.447C57.7194 103.315 58.3188 102.178 58.136 100.909C57.9531 99.6404 57.0572 98.7195 56.1349 98.8524C55.2125 98.9853 54.6131 100.122 54.7959 101.391C54.9788 102.659 55.8747 103.58 56.797 103.447Z" fill="#06053A"/>
<path opacity="0.2" d="M56.797 103.447C57.7194 103.315 58.3188 102.178 58.136 100.909C57.9531 99.6404 57.0572 98.7195 56.1349 98.8524C55.2125 98.9853 54.6131 100.122 54.7959 101.391C54.9788 102.659 55.8747 103.58 56.797 103.447Z" fill="black"/>
<path opacity="0.1" d="M224.897 19.9254C227.406 19.9254 229.439 17.8919 229.439 15.3835C229.439 12.875 227.406 10.8416 224.897 10.8416C222.389 10.8416 220.355 12.875 220.355 15.3835C220.355 17.8919 222.389 19.9254 224.897 19.9254Z" fill="#06053A"/>
<path opacity="0.1" d="M15.8974 68.5448C18.4058 68.5448 20.4393 66.5113 20.4393 64.0029C20.4393 61.4944 18.4058 59.4609 15.8974 59.4609C13.389 59.4609 11.3555 61.4944 11.3555 64.0029C11.3555 66.5113 13.389 68.5448 15.8974 68.5448Z" fill="#06053A"/>
<path opacity="0.1" d="M335.175 100.805C337.683 100.805 339.717 98.7711 339.717 96.2626C339.717 93.7542 337.683 91.7207 335.175 91.7207C332.666 91.7207 330.633 93.7542 330.633 96.2626C330.633 98.7711 332.666 100.805 335.175 100.805Z" fill="#06053A"/>
<path opacity="0.1" d="M316.796 128.214C319.304 128.214 321.338 126.18 321.338 123.672C321.338 121.163 319.304 119.13 316.796 119.13C314.287 119.13 312.254 121.163 312.254 123.672C312.254 126.18 314.287 128.214 316.796 128.214Z" fill="#06053A"/>
<path opacity="0.1" d="M238.269 10.6136C239.425 10.6136 240.362 9.67645 240.362 8.52042C240.362 7.36439 239.425 6.42725 238.269 6.42725C237.113 6.42725 236.176 7.36439 236.176 8.52042C236.176 9.67645 237.113 10.6136 238.269 10.6136Z" fill="#06053A"/>
<path opacity="0.1" d="M2.09318 55.5496C3.24921 55.5496 4.18635 54.6125 4.18635 53.4565C4.18635 52.3004 3.24921 51.3633 2.09318 51.3633C0.937147 51.3633 0 52.3004 0 53.4565C0 54.6125 0.937147 55.5496 2.09318 55.5496Z" fill="#06053A"/>
<path opacity="0.1" d="M332.726 151.611C333.882 151.611 334.819 150.674 334.819 149.518C334.819 148.362 333.882 147.425 332.726 147.425C331.57 147.425 330.633 148.362 330.633 149.518C330.633 150.674 331.57 151.611 332.726 151.611Z" fill="#06053A"/>
<path opacity="0.1" d="M249.663 2.95863C250.48 2.95863 251.142 2.29631 251.142 1.47931C251.142 0.662311 250.48 0 249.663 0C248.846 0 248.184 0.662311 248.184 1.47931C248.184 2.29631 248.846 2.95863 249.663 2.95863Z" fill="#06053A"/>
<path opacity="0.1" d="M11.3543 86.3571C12.1713 86.3571 12.8336 85.6947 12.8336 84.8777C12.8336 84.0607 12.1713 83.3984 11.3543 83.3984C10.5373 83.3984 9.875 84.0607 9.875 84.8777C9.875 85.6947 10.5373 86.3571 11.3543 86.3571Z" fill="#06053A"/>
<path d="M324.344 214.953C324.344 214.953 321.835 204.162 320.164 191.043C318.494 177.923 305.542 156.123 305.542 156.123C305.485 156.012 305.425 155.898 305.365 155.787C303.356 151.976 300.94 148.394 298.159 145.103C292.457 138.371 287.284 135.345 287.026 135.198C286.617 134.574 286.177 133.886 285.714 133.152C283.977 130.404 281.91 126.949 279.938 123.219C279.938 123.132 279.908 123.048 279.891 122.961C279.012 117.647 278.979 112.059 281.622 107.47C282.927 105.206 284.809 103.341 286.244 101.16C288.592 97.6044 289.659 93.3611 290.521 89.1747C291.128 86.2463 291.652 83.2608 291.497 80.2787C291.497 80.2317 291.497 80.1881 291.497 80.1445C291.497 79.9366 291.471 79.7286 291.45 79.5206C290.957 74.1132 288.123 69.256 285.359 64.6034C283.903 62.1546 282.373 59.6287 280.028 58.0454C275.151 54.7547 269.173 56.8143 263.961 54.9291C258.422 52.9165 253.361 51.0413 247.333 50.4241C245.196 50.2061 242.848 50.1524 241.117 51.4304C239.299 52.7722 238.695 55.221 237.487 57.1565C235.183 60.8464 230.835 62.5236 227.166 64.8449C224.378 66.5925 221.705 69.3868 221.128 72.4628C221.128 72.4628 221.128 72.4461 221.128 72.436C221.067 72.7683 221.031 73.1047 221.02 73.4423C221.02 73.4625 221.02 73.4859 221.02 73.5061V73.6067C221.009 74.2274 221.093 74.8462 221.269 75.4416C221.477 75.5489 221.688 75.6429 221.903 75.7368C221.768 75.9548 221.634 76.1729 221.507 76.4077L221.225 76.9075C218.984 80.9505 217.627 85.4232 217.243 90.0298C216.86 94.6364 217.458 99.2719 219 103.63C220.541 107.988 222.99 111.969 226.184 115.31C229.379 118.651 233.246 121.276 237.531 123.011C237.729 123.494 237.933 123.994 238.135 124.51C241.597 133.223 243.417 142.501 243.502 151.876C243.502 151.963 243.502 152.051 243.502 152.138C243.502 152.473 243.502 152.809 243.502 153.161C240.483 156.985 237.353 161.728 237.464 165.009C237.645 170.503 230.319 183.287 228.343 186.628L227.947 187.299C225.975 185.87 223.63 184.585 222.493 185.488L221.54 184.877C216.723 181.784 208.122 176.055 204.879 172.63C200.283 167.763 191.3 163.318 191.3 163.318C191.3 163.318 184.199 154.851 184.618 151.678C184.826 150.098 181.975 137.486 178.442 128.231C181.022 128.502 183.672 128.828 184.48 128.928L184.678 129.103L184.957 129.146C194.721 137.727 196.858 133.903 196.858 133.903C197.657 133.363 197.928 131.736 198.005 131.112C198.005 131.052 198.005 131.005 198.005 130.964H198.056C198.056 130.914 198.056 130.874 198.056 130.84C198.076 130.804 198.094 130.766 198.109 130.726L198.133 130.683L198.15 130.649C198.15 130.622 198.173 130.592 198.187 130.562C198.243 130.456 198.287 130.343 198.317 130.226H198.291C198.419 129.525 198.488 128.813 198.495 128.1C198.498 127.548 198.311 127.013 197.967 126.582C197.623 126.151 197.142 125.851 196.603 125.732C196.603 125.715 196.603 125.698 196.587 125.678C195.319 121.907 186.097 127.499 185.077 128.133L184.829 128.16C182.981 127.791 180.133 127.117 177.721 126.533C174.451 118.576 170.74 114.122 168.362 123.913L166.175 123.538C165.903 123.489 165.624 123.496 165.355 123.56C165.086 123.623 164.833 123.741 164.612 123.907C164.304 124.133 164.049 124.424 163.864 124.759L154.374 123.256L152.137 123.333L154.032 124.249L154.173 124.316L163.663 125.862C163.72 126.311 163.924 126.727 164.242 127.048C164.561 127.369 164.976 127.576 165.424 127.637L167.554 127.945C163.75 150.149 172.25 157.394 172.25 157.394C172.25 157.394 182.484 167.431 182.484 169.806C182.484 171.818 202.464 195.725 208.535 202.941C209.622 204.236 210.266 204.994 210.266 204.994C212.651 207.734 224.12 217.097 229.457 221.41C229.98 225.771 230.463 230.132 230.742 232.524L231.748 232.497L236.521 232.366L239.091 232.289C241.305 232.229 243.516 232.165 245.726 232.098L246.571 232.074L248.5 232.014C250.989 231.942 253.477 231.869 255.964 231.793C259.633 231.682 263.303 231.574 266.976 231.457C272.008 231.279 277.02 231.075 282.034 230.786C283.286 230.716 284.54 230.642 285.795 230.558L286.62 230.501L287.962 230.41C296.167 229.83 304.338 228.995 312.449 227.707C314.066 227.449 315.693 227.167 317.313 226.848C318.266 226.667 319.219 226.469 320.164 226.254C322.083 225.828 323.985 225.342 325.844 224.782C325.052 219.113 324.344 214.953 324.344 214.953Z" fill="url(#paint0_linear)"/>
<path d="M185.991 130.347L184.743 130.304C184.743 130.304 176.279 129.254 173.569 129.19C173.296 129.151 173.018 129.173 172.754 129.254L173.354 126.832L174.089 127.013C176.669 127.65 185.219 129.743 186.594 129.79C188.221 129.844 185.991 130.347 185.991 130.347Z" fill="#06053A"/>
<path d="M185.008 129.542C185.008 129.542 195.272 123.122 196.614 127.063C197.956 131.005 194.457 131.585 194.457 131.585L185.008 129.542Z" fill="#06053A"/>
<path opacity="0.2" d="M185.008 129.542C185.008 129.542 195.272 123.122 196.614 127.063C197.956 131.005 194.457 131.585 194.457 131.585L185.008 129.542Z" fill="black"/>
<path d="M196.857 135.188C196.857 135.188 194.693 139.019 184.73 130.304L184.868 130.126L185.281 129.593C185.281 129.593 198.175 123.665 198.511 129.455C198.506 130.208 198.425 130.959 198.269 131.696C198.233 131.856 198.163 132.007 198.064 132.139L198.017 132.182C198.017 132.182 198.017 132.273 197.991 132.427C197.927 133.044 197.655 134.648 196.857 135.188Z" fill="#06053A"/>
<path opacity="0.1" d="M196.857 135.188C196.857 135.188 194.693 139.019 184.73 130.304L184.868 130.126L185.099 129.888L198.064 132.139L198.017 132.182C198.017 132.182 198.017 132.273 197.991 132.427C197.927 133.044 197.655 134.648 196.857 135.188Z" fill="black"/>
<path opacity="0.1" d="M198.071 132.289L184.808 130.156L184.137 129.586L185.351 129.445L198.336 131.548C198.302 131.731 198.216 131.9 198.088 132.034C198.088 132.034 198.091 132.135 198.071 132.289Z" fill="black"/>
<path opacity="0.1" d="M197.938 132.564L184.675 130.441L184.004 129.874L185.215 129.73L198.213 131.833C198.18 132.017 198.092 132.186 197.962 132.32C197.962 132.32 197.958 132.414 197.938 132.564Z" fill="black"/>
<path d="M198.003 132.427L184.729 130.304L184.059 129.737L185.27 129.593L198.258 131.696C198.221 131.878 198.134 132.046 198.006 132.182C198.006 132.182 198.023 132.273 198.003 132.427Z" fill="#4C4C56"/>
<path opacity="0.1" d="M173.569 129.19C173.296 129.151 173.018 129.173 172.754 129.254L173.354 126.832L174.089 127.013C174.006 127.757 173.832 128.489 173.569 129.19Z" fill="black"/>
<path d="M173.661 126.211L166.211 124.95C165.939 124.901 165.66 124.909 165.391 124.972C165.123 125.034 164.87 125.151 164.648 125.316C164.341 125.514 164.092 125.788 163.923 126.111C163.754 126.434 163.672 126.796 163.685 127.16C163.728 127.623 163.927 128.056 164.25 128.39C164.572 128.723 164.999 128.937 165.459 128.995L172.93 130.055C172.93 130.055 174.278 126.765 173.661 126.211Z" fill="#D1D9EC"/>
<path opacity="0.1" d="M152.301 124.816L154.542 124.735L164.199 126.248C164.27 126.259 164.338 126.284 164.399 126.322C164.46 126.36 164.512 126.409 164.554 126.468C164.595 126.526 164.624 126.593 164.639 126.663C164.654 126.733 164.655 126.805 164.642 126.876C164.615 127.011 164.537 127.13 164.423 127.209C164.31 127.288 164.171 127.32 164.035 127.298L154.203 125.718L152.301 124.816Z" fill="black"/>
<path d="M152.164 124.749L154.401 124.671L164.062 126.181C164.132 126.192 164.199 126.217 164.259 126.255C164.319 126.292 164.371 126.341 164.412 126.399C164.453 126.457 164.482 126.522 164.497 126.591C164.513 126.66 164.514 126.732 164.502 126.801C164.476 126.937 164.398 127.057 164.286 127.136C164.173 127.215 164.034 127.248 163.898 127.227L154.063 125.644L152.164 124.749Z" fill="#DFE6F5"/>
<path d="M224.911 187.611L210.289 205.366C210.289 205.366 209.645 204.618 208.558 203.337C202.486 196.215 182.507 172.63 182.507 170.631C182.507 168.283 172.273 158.367 172.273 158.367C172.273 158.367 163.082 150.652 168.093 126.607C173.105 102.562 185.013 149.592 184.597 152.725C184.181 155.858 191.279 164.214 191.279 164.214C191.279 164.214 200.262 168.601 204.858 173.405C208.092 176.786 216.702 182.442 221.519 185.481C223.552 186.782 224.911 187.611 224.911 187.611Z" fill="#FDC2CC"/>
<path opacity="0.1" d="M224.915 187.611L210.293 205.366C210.293 205.366 209.649 204.618 208.562 203.337C208.797 198.365 219.297 187.396 221.155 185.729C221.264 185.631 221.389 185.552 221.524 185.494C223.557 186.782 224.915 187.611 224.915 187.611Z" fill="black"/>
<path d="M231.18 190.536C231.18 190.536 224.495 184.27 222.408 186.152C220.322 188.034 207.159 201.817 210.292 205.369C213.425 208.922 232.224 223.745 232.224 223.745L231.18 190.536Z" fill="#5F5D7E"/>
<path opacity="0.1" d="M231.18 190.536C231.18 190.536 224.495 184.27 222.408 186.152C220.322 188.034 207.159 201.817 210.292 205.369C213.425 208.922 232.224 223.745 232.224 223.745L231.18 190.536Z" fill="black"/>
<path d="M289.874 140.612C289.874 140.612 283.35 146.908 275.178 153.738L274.869 153.993L274.393 154.389C261.358 165.17 244.559 176.803 242.828 166.847C242.634 165.548 242.626 164.227 242.804 162.926C242.824 162.734 242.851 162.536 242.878 162.335C242.905 162.134 242.932 161.946 242.952 161.755C243.277 159.246 243.458 156.72 243.492 154.191C243.492 153.765 243.492 153.342 243.492 152.923C243.406 143.662 241.585 134.499 238.125 125.909C237.924 125.399 237.719 124.903 237.521 124.43C234.837 118.03 232.211 114.293 232.211 114.293C232.211 114.293 236.092 111.945 241.473 108.926C243.448 107.825 245.622 106.641 247.883 105.454C260.294 98.9462 275.218 92.4385 273.152 100.087C272.176 103.706 273.082 108.51 274.88 113.538C274.98 113.816 275.081 114.088 275.185 114.363C276.35 117.402 277.695 120.369 279.21 123.249L279.311 123.444C281.468 127.576 283.792 131.437 285.718 134.44C286.181 135.164 286.62 135.842 287.029 136.452C288.717 139.035 289.874 140.612 289.874 140.612Z" fill="#FDC2CC"/>
<path opacity="0.1" d="M275.196 114.363C275.099 114.507 274.995 114.652 274.891 114.793C271.758 119.053 268.132 121.589 263.822 123.018C260.849 124.007 257.542 124.474 253.835 124.621C252.913 124.655 251.97 124.671 250.997 124.671C248.756 124.675 246.515 124.547 244.289 124.286C243.118 124.101 241.893 124.889 240.709 125.466C239.827 125.892 238.965 126.204 238.16 125.909C237.959 125.399 237.754 124.903 237.556 124.43C234.873 118.03 232.246 114.293 232.246 114.293C232.246 114.293 236.127 111.945 241.508 108.926C243.483 107.825 245.657 106.641 247.918 105.454C260.33 98.9462 275.254 92.4385 273.187 100.087C272.211 103.706 273.117 108.51 274.915 113.538C274.992 113.816 275.092 114.088 275.196 114.363Z" fill="black"/>
<path d="M281.103 94.5988C281.103 95.0886 281.103 95.5716 281.069 96.0546C280.748 103.157 278.071 109.95 273.459 115.362C268.847 120.773 262.564 124.493 255.602 125.936C251.794 126.72 247.876 126.807 244.036 126.194C242.906 126.018 241.786 125.778 240.682 125.477C239.613 125.187 238.561 124.841 237.529 124.44C233.258 122.78 229.394 120.223 226.197 116.942C223 113.661 220.544 109.731 218.995 105.42C217.446 101.108 216.84 96.5143 217.219 91.9485C217.597 87.3828 218.951 82.9514 221.189 78.9537L221.471 78.4606C225.017 72.3909 230.464 67.6578 236.969 64.9926C243.474 62.3274 250.676 61.8783 257.461 63.7148C264.247 65.5512 270.239 69.5709 274.512 75.153C278.785 80.7351 281.102 87.569 281.103 94.5988Z" fill="#FDC2CC"/>
<path opacity="0.1" d="M289.874 140.612C289.874 140.612 239.115 189.697 242.875 162.335C243.301 159.216 243.51 156.071 243.499 152.923C245.26 150.745 247.131 148.658 249.104 146.67L256.236 141.514C263.589 136.147 272.555 133.454 281.649 133.879C283.021 133.914 284.384 134.102 285.715 134.44C288.106 138.187 289.874 140.612 289.874 140.612Z" fill="black"/>
<path d="M325.851 224.882C323.993 225.436 322.091 225.916 320.172 226.335C319.226 226.546 318.274 226.741 317.321 226.922C315.701 227.234 314.074 227.512 312.457 227.767C304.359 229.039 296.188 229.864 287.97 230.451L286.628 230.541L285.803 230.595C284.548 230.679 283.294 230.753 282.042 230.823C277.027 231.105 272.006 231.31 266.984 231.494C263.294 231.621 259.641 231.729 255.972 231.829L248.508 232.048L246.579 232.105L245.734 232.128C243.524 232.195 241.313 232.259 239.099 232.319L236.529 232.393L231.756 232.524L230.749 232.551C230.481 230.182 229.988 225.879 229.465 221.582L229.344 220.575C228.767 215.835 228.17 211.283 227.824 209.559C226.989 205.383 227.824 188.044 227.824 188.044L227.915 187.9L228.311 187.229C230.287 183.931 237.613 171.312 237.431 165.888C237.324 162.651 240.451 157.968 243.47 154.194C243.865 153.704 244.258 153.228 244.644 152.775C247.049 149.947 249.108 147.935 249.108 147.935L256.237 142.776C263.594 137.414 272.56 134.723 281.653 135.148C284.337 135.285 286.477 135.661 287.02 136.469C287.252 136.6 292.451 139.585 298.154 146.247C300.931 149.491 303.347 153.027 305.359 156.794C305.419 156.901 305.48 157.012 305.537 157.129C305.537 157.129 318.488 178.645 320.159 191.596C321.829 204.548 324.339 215.198 324.339 215.198C324.339 215.198 325.053 219.287 325.851 224.882Z" fill="#5F5D7E"/>
<path opacity="0.1" d="M287.161 214.973C286.131 216.651 286.926 224.503 287.983 230.437L286.641 230.528L285.816 230.582C284.561 230.665 283.307 230.739 282.056 230.81C277.041 231.091 272.019 231.296 266.997 231.481C263.308 231.608 259.655 231.715 255.985 231.816L248.521 232.034C248.521 231.269 248.286 230.608 247.679 230.223C247.255 229.917 246.88 229.55 246.566 229.132C246.468 229.015 246.368 228.888 246.267 228.757C243.942 225.671 240.997 219.364 240.997 219.364C240.997 219.364 237.237 220.2 236.817 189.51C236.683 179.507 239.273 172.187 242.825 166.864C250.185 155.841 261.674 153.372 261.674 153.372C265.931 152.632 270.306 152.988 274.387 154.409C275.988 154.97 277.53 155.688 278.99 156.552C280.947 157.73 282.772 159.114 284.434 160.682L284.971 161.195C296.684 172.6 299.452 190.409 292.216 205.078C289.898 209.764 287.808 213.92 287.161 214.973Z" fill="black"/>
<path d="M285.49 213.303C284.356 215.148 285.436 224.517 286.644 230.528L285.818 230.582C284.564 230.665 283.309 230.739 282.058 230.81C277.043 231.091 272.022 231.296 267 231.481C263.31 231.608 259.657 231.715 255.987 231.816L248.524 232.034L246.595 232.091C246.89 231.008 247.001 229.891 246.568 229.132C246.488 228.993 246.387 228.866 246.27 228.757C246.192 228.678 246.106 228.609 246.011 228.552C243.713 227.09 239.326 217.687 239.326 217.687C239.326 217.687 235.569 218.526 235.15 187.832C234.995 176.34 238.437 168.377 242.804 162.936C250.11 153.822 260.006 151.695 260.006 151.695C261.302 151.48 262.611 151.359 263.924 151.333H263.964C267.839 151.247 271.679 152.074 275.175 153.748C278.18 155.215 280.924 157.166 283.296 159.524C283.685 159.903 284.067 160.289 284.433 160.682C295.167 172.117 297.542 189.228 290.545 203.407C288.227 208.093 286.137 212.25 285.49 213.303Z" fill="#5F5D7E"/>
<path opacity="0.1" d="M259.649 192.68C259.649 192.68 239.036 207.308 240.794 209.321C242.552 211.334 259.649 192.68 259.649 192.68Z" fill="black"/>
<path opacity="0.1" d="M288.577 197.95C288.577 197.95 282.136 192.213 282.602 194.437C283.069 196.661 288.577 197.95 288.577 197.95Z" fill="black"/>
<path opacity="0.1" d="M282.06 230.81C277.045 231.091 272.024 231.296 267.002 231.481C258.404 230.474 249.465 228.995 249.465 228.995C250.24 228.542 277.669 227.995 282.06 230.81Z" fill="black"/>
<path opacity="0.1" d="M320.172 226.335C319.226 226.546 318.273 226.741 317.321 226.922C316.948 220.921 316.801 215.751 316.801 215.751C318.108 219.218 319.233 222.751 320.172 226.335Z" fill="black"/>
<path opacity="0.1" d="M239.114 232.306L236.545 232.38C234.499 226.791 232.741 220.163 232.023 217.348C231.802 216.479 231.688 215.973 231.688 215.973L232.006 216.644C233.063 218.848 236.565 226.201 239.114 232.306Z" fill="black"/>
<path opacity="0.1" d="M278.99 106.028C277.966 108.705 276.585 111.231 274.884 113.538C274.985 113.817 275.085 114.088 275.189 114.363C276.355 117.402 277.699 120.369 279.214 123.249L279.315 123.444C279.49 124.786 279.731 126.127 280.009 127.436C274.911 127.704 269.806 127.821 264.696 127.788C262.476 127.788 260.222 127.724 258.105 127.06C257.23 126.784 256.392 126.403 255.609 125.926C254.979 125.544 254.384 125.108 253.831 124.621C251.073 122.128 249.331 118.705 248.941 115.007C248.635 112.126 249.071 109.14 248.236 106.366C248.14 106.058 248.028 105.754 247.901 105.457C247.218 103.877 246.139 102.499 244.769 101.457C243.399 100.415 241.783 99.7431 240.078 99.5064C239.585 99.3989 239.069 99.4689 238.622 99.7044C238.241 100.021 237.966 100.448 237.834 100.925L234.376 109.945C231.913 110.563 230.176 107.346 230.38 104.817C230.585 102.287 231.722 99.6977 230.88 97.3026C230.622 96.5612 230.182 95.887 229.995 95.1289C229.247 92.1401 232.46 89.4867 232.487 86.4073C232.507 83.8747 230.34 81.8285 228.039 80.7752C225.929 79.8091 223.598 79.3932 221.484 78.4506C225.034 72.3867 230.481 67.6597 236.984 64.9992C243.488 62.3387 250.686 61.8925 257.468 63.7295C264.25 65.5665 270.239 69.5846 274.511 75.1636C278.782 80.7426 281.099 87.5724 281.103 94.5989C281.103 95.0886 281.103 95.5717 281.069 96.0547C280.917 99.4691 280.214 102.837 278.99 106.028Z" fill="black"/>
<path d="M247.32 52.7991C245.183 52.5844 242.835 52.5308 241.104 53.8055C239.286 55.1472 238.682 57.549 237.475 59.4577C235.17 63.1074 230.823 64.7745 227.153 67.0455C223.483 69.3164 220.008 73.372 221.236 77.5114C223.497 78.6519 226.063 79.0511 228.364 80.1044C230.665 81.1576 232.832 83.2039 232.812 85.7365C232.785 88.8158 229.572 91.4692 230.32 94.458C230.508 95.2161 230.947 95.8904 231.205 96.6317C232.041 99.0268 230.91 101.616 230.705 104.146C230.501 106.675 232.238 109.892 234.701 109.275L238.183 100.255C238.315 99.7767 238.59 99.3507 238.971 99.0335C239.418 98.7981 239.933 98.728 240.427 98.8356C242.291 99.0965 244.043 99.8789 245.482 101.093C246.92 102.306 247.987 103.902 248.558 105.695C249.393 108.47 248.957 111.455 249.262 114.337C249.822 119.65 253.335 124.789 258.433 126.389C260.55 127.06 262.794 127.104 265.025 127.117C270.13 127.155 275.235 127.038 280.338 126.765C279.08 120.848 278.567 114.31 281.616 109.09C282.921 106.856 284.803 105.014 286.238 102.861C288.587 99.3522 289.653 95.1625 290.515 91.0331C291.186 87.9034 291.733 84.7033 291.438 81.5199C290.945 76.183 288.11 71.3861 285.346 66.7972C283.89 64.3787 282.361 61.883 280.016 60.3198C275.139 57.0727 269.161 59.1089 263.948 57.2438C258.41 55.268 253.348 53.4096 247.32 52.7991Z" fill="#865A61"/>
<g opacity="0.1">
<path opacity="0.1" d="M231.419 97.4234C231.598 96.3555 231.523 95.2604 231.201 94.2266C230.966 93.5557 230.587 92.9352 230.376 92.2576C230.172 92.9552 230.153 93.6936 230.319 94.4011C230.506 95.1592 230.946 95.8334 231.201 96.5748C231.297 96.851 231.37 97.1349 231.419 97.4234Z" fill="black"/>
<path opacity="0.1" d="M232.654 84.5054C232.75 84.1213 232.802 83.7273 232.808 83.3313C232.828 80.8021 230.665 78.7525 228.363 77.6992C226.062 76.6459 223.496 76.2467 221.235 75.1062C221.18 74.9197 221.134 74.7305 221.098 74.5393C220.909 75.508 220.956 76.5077 221.235 77.4543C223.496 78.5948 226.062 78.994 228.363 80.0473C230.299 80.9329 232.127 82.5229 232.654 84.5054Z" fill="black"/>
<path opacity="0.1" d="M265.022 124.712C262.805 124.712 260.551 124.648 258.434 123.984C253.335 122.384 249.823 117.245 249.263 111.931C248.958 109.05 249.394 106.068 248.558 103.29C247.986 101.495 246.918 99.8982 245.477 98.6843C244.035 97.4705 242.28 96.6891 240.414 96.4306C239.92 96.323 239.405 96.3931 238.958 96.6285C238.576 96.9446 238.3 97.371 238.17 97.8495L234.711 106.87C232.732 107.366 231.223 105.387 230.81 103.277C230.773 103.549 230.736 103.82 230.716 104.089C230.508 106.618 232.249 109.835 234.711 109.218L238.193 100.198C238.324 99.7191 238.599 99.2927 238.981 98.9766C239.428 98.7412 239.944 98.6711 240.437 98.7787C242.301 99.0396 244.054 99.822 245.492 101.036C246.931 102.249 247.997 103.845 248.568 105.639C249.404 108.416 248.968 111.398 249.273 114.28C249.833 119.593 253.345 124.732 258.444 126.332C260.561 127.003 262.805 127.047 265.032 127.06C270.142 127.098 275.247 126.986 280.348 126.725C280.187 125.956 280.037 125.178 279.902 124.397C274.944 124.64 269.984 124.745 265.022 124.712Z" fill="black"/>
<path opacity="0.1" d="M290.517 88.6279C289.651 92.7573 288.581 96.947 286.24 100.456C284.804 102.609 282.922 104.451 281.618 106.685C279.752 109.875 279.222 113.558 279.377 117.292C279.504 114.377 280.145 111.552 281.618 109.033C282.922 106.799 284.804 104.957 286.24 102.804C288.588 99.2951 289.651 95.1054 290.517 90.976C291.127 88.061 291.657 85.0856 291.49 82.1169C291.331 84.3088 291.006 86.4854 290.517 88.6279Z" fill="black"/>
</g>
</g>
<defs>
<linearGradient id="paint0_linear" x1="239.007" y1="232.537" x2="239.007" y2="50.3201" gradientUnits="userSpaceOnUse">
<stop stop-color="#808080" stop-opacity="0.25"/>
<stop offset="0.54" stop-color="#808080" stop-opacity="0.12"/>
<stop offset="1" stop-color="#808080" stop-opacity="0.1"/>
</linearGradient>
<clipPath id="clip0">
<rect width="350" height="233.476" fill="white"/>
</clipPath>
</defs>
</svg>
