<svg width="350" height="284" viewBox="0 0 350 284" fill="none" xmlns="http://www.w3.org/2000/svg">
<g clip-path="url(#clip0)">
<path d="M89.9213 117.516C107.452 117.516 121.663 103.305 121.663 85.7748C121.663 68.2444 107.452 54.0332 89.9213 54.0332C72.3909 54.0332 58.1797 68.2444 58.1797 85.7748C58.1797 103.305 72.3909 117.516 89.9213 117.516Z" fill="#FF6584"/>
<path d="M350 75.9568V159.443C350 175.624 346.814 191.647 340.621 206.597C334.429 221.547 325.353 235.13 313.911 246.572C302.469 258.014 288.886 267.09 273.936 273.282C258.986 279.474 242.963 282.661 226.782 282.661H0V199.175C0 154.563 23.71 115.485 59.2203 93.8612C65.3395 90.1315 71.7746 86.9468 78.4514 84.3439C82.3807 82.8089 86.3876 81.4804 90.4557 80.3639C90.5351 80.3375 90.6182 80.3148 90.6976 80.2959C91.8996 79.9671 93.1091 79.6571 94.3261 79.3661C94.3942 79.3472 94.4584 79.3321 94.5265 79.3169C102.027 77.5297 109.68 76.4503 117.382 76.0929C118.293 76.0513 119.204 76.0173 120.123 75.9984C120.451 75.987 120.784 75.9795 121.12 75.9795C121.816 75.9643 122.515 75.9568 123.218 75.9568H350Z" fill="#3F3D56"/>
<path d="M163.283 228.861C73.2938 228.861 0.309865 253.127 0.00390625 283.099H326.563C326.257 253.127 253.273 228.861 163.283 228.861Z" fill="#F2F2F2"/>
<g opacity="0.1">
<path opacity="0.1" d="M133.046 269.954C149.746 269.954 163.284 266.194 163.284 261.555C163.284 256.916 149.746 253.156 133.046 253.156C116.346 253.156 102.809 256.916 102.809 261.555C102.809 266.194 116.346 269.954 133.046 269.954Z" fill="black"/>
</g>
<g opacity="0.1">
<path opacity="0.1" d="M198.433 254.836C215.133 254.836 228.67 251.075 228.67 246.436C228.67 241.797 215.133 238.037 198.433 238.037C181.733 238.037 168.195 241.797 168.195 246.436C168.195 251.075 181.733 254.836 198.433 254.836Z" fill="black"/>
</g>
<g opacity="0.1">
<path opacity="0.1" d="M133.046 269.114C148.076 269.114 160.26 265.73 160.26 261.555C160.26 257.38 148.076 253.996 133.046 253.996C118.016 253.996 105.832 257.38 105.832 261.555C105.832 265.73 118.016 269.114 133.046 269.114Z" fill="black"/>
</g>
<g opacity="0.1">
<path opacity="0.1" d="M198.433 253.996C213.462 253.996 225.646 250.611 225.646 246.436C225.646 242.261 213.462 238.877 198.433 238.877C183.403 238.877 171.219 242.261 171.219 246.436C171.219 250.611 183.403 253.996 198.433 253.996Z" fill="black"/>
</g>
<path d="M52.1614 112.257C53.6226 112.257 54.8072 111.072 54.8072 109.611C54.8072 108.15 53.6226 106.965 52.1614 106.965C50.7002 106.965 49.5156 108.15 49.5156 109.611C49.5156 111.072 50.7002 112.257 52.1614 112.257Z" fill="#F2F2F2"/>
<path d="M279.697 215.821C281.158 215.821 282.342 214.636 282.342 213.175C282.342 211.714 281.158 210.529 279.697 210.529C278.235 210.529 277.051 211.714 277.051 213.175C277.051 214.636 278.235 215.821 279.697 215.821Z" fill="#F2F2F2"/>
<path d="M154.966 130.778C156.427 130.778 157.612 129.593 157.612 128.132C157.612 126.671 156.427 125.486 154.966 125.486C153.505 125.486 152.32 126.671 152.32 128.132C152.32 129.593 153.505 130.778 154.966 130.778Z" fill="#F2F2F2"/>
<path d="M286.121 113.769C286.956 113.769 287.633 113.092 287.633 112.257C287.633 111.422 286.956 110.745 286.121 110.745C285.286 110.745 284.609 111.422 284.609 112.257C284.609 113.092 285.286 113.769 286.121 113.769Z" fill="#FF6584"/>
<path d="M58.2072 189.363C59.0422 189.363 59.7191 188.686 59.7191 187.851C59.7191 187.016 59.0422 186.339 58.2072 186.339C57.3722 186.339 56.6953 187.016 56.6953 187.851C56.6953 188.686 57.3722 189.363 58.2072 189.363Z" fill="#FF6584"/>
<path d="M35.5275 219.722H34.8388V219.033H34.7043V219.722H34.0156V219.857H34.7043V220.545H34.8388V219.857H35.5275V219.722Z" fill="#F2F2F2"/>
<path d="M256.641 163.783H255.952V163.094H255.818V163.783H255.129V163.917H255.818V164.606H255.952V163.917H256.641V163.783Z" fill="#F2F2F2"/>
<path d="M313.715 152.444H313.026V151.755H312.892V152.444H312.203V152.578H312.892V153.267H313.026V152.578H313.715V152.444Z" fill="#F2F2F2"/>
<path d="M190.875 182.681H190.186V181.992H190.052V182.681H189.363V182.816H190.052V183.504H190.186V182.816H190.875V182.681Z" fill="#F2F2F2"/>
<path d="M297.086 186.461H296.397V185.772H296.263V186.461H295.574V186.595H296.263V187.284H296.397V186.595H297.086V186.461Z" fill="#F2F2F2"/>
<path d="M168.953 202.714H168.265V202.025H168.13V202.714H167.441V202.848H168.13V203.537H168.265V202.848H168.953V202.714Z" fill="#F2F2F2"/>
<path d="M217.332 203.469H216.644V202.781H216.509V203.469H215.82V203.604H216.509V204.293H216.644V203.604H217.332V203.469Z" fill="#F2F2F2"/>
<path d="M36.2853 139.215H35.5967V138.526H35.4621V139.215H34.7734V139.349H35.4621V140.038H35.5967V139.349H36.2853V139.215Z" fill="#F2F2F2"/>
<path d="M256.973 87.1936H255.887V109.14H256.973V87.1936Z" fill="#E6E6E6"/>
<path d="M231.222 145.536L221.227 168.568L223.182 171.828L222.53 172.914L227.093 175.304V174.001L228.832 173.566L236.219 160.094L231.222 145.536Z" fill="#E6E6E6"/>
<path d="M223.4 172.697C223.4 172.697 216.012 184.213 224.269 185.952C232.526 187.69 225.79 173.783 225.79 173.783L223.4 172.697Z" fill="#E6E6E6"/>
<path d="M234.048 167.482L231.441 175.956L230.354 186.821L228.398 190.732L230.571 208.332L234.048 211.809L235.569 229.192V237.015L239.697 244.185L234.381 251.731C234.13 252.086 233.98 252.501 233.947 252.934C233.913 253.367 233.998 253.801 234.191 254.19C234.385 254.579 234.68 254.908 235.045 255.143C235.411 255.377 235.833 255.509 236.267 255.522C237.441 255.553 238.988 255.222 241.001 254.18C247.303 250.921 247.085 247.879 247.085 247.879C247.085 247.879 250.997 247.879 251.214 244.837C251.431 241.795 248.824 220.066 248.824 220.066L246.433 210.723V185.3H247.303L247.737 207.029L249.693 215.068L249.91 218.545L252.735 253.311C252.735 253.311 265.338 256.788 265.989 253.963C266.641 251.138 261.209 249.4 261.209 249.4L264.468 243.099V230.93L263.382 228.323L261.426 210.723L264.686 207.246L266.424 205.073V187.69L264.251 180.954L263.599 175.304L260.123 166.613C260.123 166.613 244.261 161.398 234.048 167.482Z" fill="white"/>
<path d="M262.294 118.375C262.294 120.988 261.673 123.565 260.484 125.892C259.294 128.219 257.569 130.231 255.45 131.761C253.332 133.292 250.88 134.298 248.297 134.696C245.714 135.094 243.073 134.874 240.592 134.053C238.111 133.232 235.86 131.834 234.024 129.973C232.189 128.113 230.821 125.843 230.033 123.351C229.246 120.859 229.061 118.215 229.494 115.638C229.927 113.06 230.966 110.623 232.525 108.525L232.529 108.521C234.601 105.734 237.498 103.672 240.808 102.626C244.119 101.58 247.675 101.605 250.971 102.696C254.267 103.787 257.135 105.89 259.168 108.704C261.2 111.519 262.294 114.903 262.294 118.375Z" fill="#06053A"/>
<g opacity="0.1">
<path opacity="0.1" d="M259.946 111.528L258.599 119.244C248.475 92.9648 232.372 109.107 232.094 109.39C233.758 107.151 235.962 105.371 238.5 104.215C241.039 103.059 243.828 102.565 246.609 102.778C249.39 102.992 252.072 103.906 254.404 105.436C256.736 106.966 258.643 109.062 259.946 111.528Z" fill="black"/>
</g>
<path d="M260.383 110.659L259.036 118.375C248.913 92.0956 232.809 108.238 232.531 108.521C234.196 106.282 236.4 104.502 238.938 103.346C241.476 102.19 244.266 101.696 247.047 101.909C249.828 102.123 252.51 103.037 254.842 104.567C257.174 106.097 259.08 108.193 260.383 110.659Z" fill="white"/>
<path d="M258.121 107.401L260.384 115.259C260.384 115.259 255.685 129.344 233.894 129.835L233.18 131.847L230.79 132.498L229.703 137.061L232.745 165.961C232.745 165.961 231.441 168.786 233.614 168.568C233.614 168.568 247.955 163.788 260.341 168.134C260.341 168.134 262.948 169.22 262.297 166.83C262.297 166.83 270.988 161.398 270.336 155.748C269.684 150.099 270.988 123.807 270.988 123.807C270.988 123.807 272.292 116.202 268.381 114.463C268.381 114.463 262.636 106.423 258.121 107.401Z" fill="white"/>
<path d="M253.356 162.307C253.356 162.307 239.742 163.674 243.511 171.224C247.279 178.773 253.99 164.855 253.99 164.855L253.356 162.307Z" fill="#E6E6E6"/>
<path d="M260.339 128.587C260.339 128.587 257.948 131.412 258.818 135.975C259.687 140.538 262.946 150.751 262.946 150.751L251.43 161.398L254.906 166.178L270.551 158.138L274.028 155.966C273.163 147.177 271.012 138.563 267.643 130.4L267.075 129.022C267.075 129.022 262.946 127.283 260.339 128.587Z" fill="#E6E6E6"/>
<path d="M259.25 120.873C261.47 120.873 263.27 119.074 263.27 116.853C263.27 114.633 261.47 112.834 259.25 112.834C257.03 112.834 255.23 114.633 255.23 116.853C255.23 119.074 257.03 120.873 259.25 120.873Z" fill="#E6E6E6"/>
<path d="M256.429 90.0183C258.05 90.0183 259.363 88.705 259.363 87.0849C259.363 85.4648 258.05 84.1515 256.429 84.1515C254.809 84.1515 253.496 85.4648 253.496 87.0849C253.496 88.705 254.809 90.0183 256.429 90.0183Z" fill="#E6E6E6"/>
<path d="M181.805 133.167H181.116V132.478H180.982V133.167H180.293V133.302H180.982V133.99H181.116V133.302H181.805V133.167Z" fill="#F2F2F2"/>
<path d="M243.789 112.001H243.101V111.312H242.966V112.001H242.277V112.135H242.966V112.824H243.101V112.135H243.789V112.001Z" fill="#F2F2F2"/>
<path d="M236.988 118.426H236.3V117.738H236.165V118.426H235.477V118.561H236.165V119.249H236.3V118.561H236.988V118.426Z" fill="#F2F2F2"/>
<path d="M210.153 102.43C210.987 102.43 211.664 101.753 211.664 100.918C211.664 100.083 210.987 99.406 210.153 99.406C209.318 99.406 208.641 100.083 208.641 100.918C208.641 101.753 209.318 102.43 210.153 102.43Z" fill="#F2F2F2"/>
<path d="M135.677 111.575C135.677 217.045 122.414 217.045 106.059 217.045C97.6033 217.045 89.975 217.045 84.5806 202.476C83.0297 198.289 81.6596 192.89 80.511 185.94C77.9246 170.317 76.4414 146.84 76.4414 111.575C76.4414 98.0138 78.0466 84.7198 80.511 72.303C81.6957 66.3253 83.0793 60.5555 84.5806 55.0525C86.4165 48.3151 88.4286 41.9801 90.4589 36.1831C91.82 32.2854 93.1946 28.6273 94.5285 25.2495C100.692 9.65847 106.059 0 106.059 0C106.059 0 135.677 53.3252 135.677 111.575Z" fill="#F2F2F2"/>
<g opacity="0.1">
<path opacity="0.1" d="M94.5266 25.2495V209.132H90.457V36.1832C91.8181 32.2854 93.1927 28.6273 94.5266 25.2495Z" fill="black"/>
</g>
<path d="M105.153 89.0788C114.144 89.0788 121.432 81.7908 121.432 72.8005C121.432 63.8102 114.144 56.5221 105.153 56.5221C96.1631 56.5221 88.875 63.8102 88.875 72.8005C88.875 81.7908 96.1631 89.0788 105.153 89.0788Z" fill="#3F3D56"/>
<path d="M140.874 207.097C137.255 198.188 132.608 196.65 129.57 196.784V195.34H82.0915V196.784C79.0538 196.65 74.4065 198.188 70.7871 207.097C64.9088 221.567 74.4045 246.436 74.4045 246.436C74.4045 246.436 69.3298 211.751 86.1814 211.523C87.6408 213.427 89.4316 215.051 91.4679 216.319V225.648H118.682V217.169C121.342 215.819 123.665 213.89 125.48 211.523C142.332 211.751 137.257 246.436 137.257 246.436C137.257 246.436 146.753 221.567 140.874 207.097Z" fill="#06053A"/>
<path d="M105.153 85.4614C112.146 85.4614 117.814 79.7929 117.814 72.8005C117.814 65.808 112.146 60.1395 105.153 60.1395C98.1607 60.1395 92.4922 65.808 92.4922 72.8005C92.4922 79.7929 98.1607 85.4614 105.153 85.4614Z" fill="#06053A"/>
<path d="M319.764 75.9568H319.008C319.062 84.1434 322.35 91.9767 328.155 97.7496C333.96 103.523 341.811 106.767 349.998 106.776V106.021C342.011 106.012 334.352 102.847 328.689 97.2157C323.025 91.5844 319.817 83.943 319.764 75.9568Z" fill="#06053A"/>
<path d="M305.779 75.9568H305.023C305.081 87.8514 309.843 99.24 318.27 107.635C326.697 116.03 338.103 120.749 349.998 120.761V120.005C338.304 119.992 327.09 115.353 318.805 107.1C310.52 98.8466 305.838 87.6507 305.779 75.9568Z" fill="#06053A"/>
<path d="M291.416 75.9568H290.66C290.755 108.598 317.337 135.124 350.001 135.124V134.368C317.753 134.368 291.511 108.182 291.416 75.9568Z" fill="#06053A"/>
</g>
<defs>
<clipPath id="clip0">
<rect width="350" height="283.099" fill="white"/>
</clipPath>
</defs>
</svg>
